<svg id="cancel" xmlns="http://www.w3.org/2000/svg" width="42" height="42" viewBox="0 0 42 42">
  <g id="Group_173" data-name="Group 173">
    <g id="Group_172" data-name="Group 172">
      <path id="Path_236" data-name="Path 236" d="M21,0A21,21,0,1,0,42,21,21,21,0,0,0,21,0Zm0,40.645A19.645,19.645,0,1,1,40.645,21,19.645,19.645,0,0,1,21,40.645Z" fill="#999"/>
      <path id="Path_238" data-name="Path 238" d="M30.014,16.208a.71.71,0,0,0-1.006,0l-5.9,5.9-5.9-5.9a.711.711,0,1,0-1.006,1.006l5.9,5.9-5.9,5.9a.711.711,0,1,0,1.006,1.006l5.9-5.9,5.9,5.9a.711.711,0,0,0,1.006-1.006l-5.9-5.9,5.9-5.9A.71.71,0,0,0,30.014,16.208Z" transform="translate(-2.111 -2.111)" fill="#999"/>
    </g>
  </g>
</svg>
