<?xml version="1.0" encoding="UTF-8"?>
<svg width="68px" height="68px" viewBox="0 0 68 68" version="1.1" xmlns="http://www.w3.org/2000/svg" xmlns:xlink="http://www.w3.org/1999/xlink">
    <title>error copy</title>
    <g id="error-copy" stroke="none" stroke-width="1" fill="none" fill-rule="evenodd">
        <g id="Group-15-Copy" transform="translate(7.500000, 8.500000)" fill="#DD5D57" fill-rule="nonzero">
            <path d="M20.553598,8 C20.1853314,8 19.8869314,7.70146667 19.8869314,7.33333333 L19.8869314,5.15453333 L18.0001314,6.24386667 C17.681198,6.428 17.2734647,6.3188 17.0894647,5.99986667 C16.9053314,5.68106667 17.0145314,5.27333333 17.3334647,5.0892 L19.2201314,4 L17.3334647,2.91066667 C17.0146647,2.72666667 16.9053314,2.31893333 17.0894647,2 C17.273598,1.6812 17.6813314,1.57186667 18.0001314,1.756 L19.8869314,2.84533333 L19.8869314,0.666666667 C19.8869314,0.298533333 20.1853314,0 20.553598,0 C20.9217314,0 21.2202647,0.298533333 21.2202647,0.666666667 L21.2202647,2.8452 L23.1069314,1.75586667 C23.4258647,1.57173333 23.833598,1.68106667 24.017598,1.99986667 C24.2017314,2.3188 24.0925314,2.7264 23.773598,2.91053333 L21.886798,4 L23.7737314,5.08933333 C24.0925314,5.27346667 24.2017314,5.6812 24.0177314,6 C23.833598,6.31893333 23.4258647,6.42813333 23.1070647,6.244 L21.2202647,5.1548 L21.2202647,7.33333333 C21.2202647,7.70146667 20.9217314,8 20.553598,8 Z" id="Path"></path>
            <path d="M2.88693137,16.3333333 C2.88693137,16.7014667 3.18533137,17 3.55359804,17 C3.92173137,17 4.2202647,16.7014667 4.2202647,16.3333333 L4.2202647,14.1548 L6.1070647,15.244 C6.4258647,15.4281333 6.83359804,15.3189333 7.01773137,15 C7.20173137,14.6812 7.09253137,14.2734667 6.77373137,14.0893333 L4.88679804,13 L6.77359804,11.9105333 C7.09253137,11.7264 7.20173137,11.3188 7.01759804,10.9998667 C6.83359804,10.6810667 6.4258647,10.5717333 6.10693137,10.7558667 L4.2202647,11.8452 L4.2202647,9.66666667 C4.2202647,9.29853333 3.92173137,9 3.55359804,9 C3.18533137,9 2.88693137,9.29853333 2.88693137,9.66666667 L2.88693137,11.8453333 L1.00013137,10.756 C0.681331371,10.5718667 0.273598038,10.6812 0.0894647043,11 C-0.094668629,11.3189333 0.0146647043,11.7266667 0.333464704,11.9106667 L2.22013137,13 L0.333464704,14.0892 C0.014531371,14.2733333 -0.094668629,14.6810667 0.0894647043,14.9998667 C0.273464704,15.3188 0.681198038,15.428 1.00013137,15.2438667 L2.88693137,14.1545333 L2.88693137,16.3333333 Z" id="Path"></path>
            <path d="M45.553598,18 C45.1853314,18 44.8869314,17.7014667 44.8869314,17.3333333 L44.8869314,15.1545333 L43.0001314,16.2438667 C42.681198,16.428 42.2734647,16.3188 42.0894647,15.9998667 C41.9053314,15.6810667 42.0145314,15.2733333 42.3334647,15.0892 L44.2201314,14 L42.3334647,12.9106667 C42.0146647,12.7266667 41.9053314,12.3189333 42.0894647,12 C42.273598,11.6812 42.6813314,11.5718667 43.0001314,11.756 L44.8869314,12.8453333 L44.8869314,10.6666667 C44.8869314,10.2985333 45.1853314,10 45.553598,10 C45.9217314,10 46.2202647,10.2985333 46.2202647,10.6666667 L46.2202647,12.8452 L48.1069314,11.7558667 C48.4258647,11.5717333 48.833598,11.6810667 49.017598,11.9998667 C49.2017314,12.3188 49.0925314,12.7264 48.773598,12.9105333 L46.886798,14 L48.7737314,15.0893333 C49.0925314,15.2734667 49.2017314,15.6812 49.0177314,16 C48.833598,16.3189333 48.4258647,16.4281333 48.1070647,16.244 L46.2202647,15.1548 L46.2202647,17.3333333 C46.2202647,17.7014667 45.9217314,18 45.553598,18 Z" id="Path"></path>
            <path d="M45.6430186,6.09838095 C45.4588852,5.77958095 45.5680852,5.37184762 45.8870186,5.18771429 L47.7736852,4.09851429 L45.8870186,3.00918095 C45.5682186,2.82518095 45.4588852,2.41744762 45.6430186,2.09851429 C45.8271519,1.77971429 46.2348852,1.67038095 46.5536852,1.85451429 L48.4404852,2.94384762 L48.4404852,0.765180952 C48.4404852,0.397047619 48.7388852,0.0985142857 49.1071519,0.0985142857 C49.4752852,0.0985142857 49.7738186,0.397047619 49.7738186,0.765180952 L49.7738186,2.94371429 L51.6604852,1.85438095 C51.9794186,1.67024762 52.3871519,1.77958095 52.5711519,2.09838095 C52.7552852,2.41731429 52.6460852,2.82491429 52.3271519,3.00904762 L50.4403519,4.09851429 L52.3272852,5.18784762 C52.6460852,5.37198095 52.7552852,5.77971429 52.5712852,6.09851429 C52.3871519,6.41744762 51.9794186,6.52664762 51.6606186,6.34251429 L49.7738186,5.25331429 L49.7738186,7.43184762 C49.7738186,7.79998095 49.4752852,8.09851429 49.1071519,8.09851429 C48.7388852,8.09851429 48.4404852,7.79998095 48.4404852,7.43184762 L48.4404852,5.25304762 L46.5536852,6.34238095 C46.2347519,6.52651429 45.8270186,6.41731429 45.6430186,6.09838095 Z" id="Path"></path>
            <path d="M27.5143548,10.6161714 C16.4827759,10.6161714 7.51435482,19.5845925 7.51435482,30.6161714 C7.51435482,41.6477504 16.4827759,50.6161714 27.5143548,50.6161714 C38.5459338,50.6161714 47.5143548,41.6477504 47.5143548,30.6161714 C47.5143548,19.5845925 38.5459338,10.6161714 27.5143548,10.6161714 Z M36.1459338,37.6477504 C36.5669864,38.068803 36.5669864,38.7845925 36.1459338,39.2477504 C35.9354075,39.4582767 35.6406706,39.5845925 35.3459338,39.5845925 C35.0511969,39.5845925 34.7564601,39.4582767 34.5459338,39.2477504 L27.5143548,32.2161714 L20.4827759,39.2477504 C20.2722496,39.4582767 19.9775127,39.5845925 19.6827759,39.5845925 C19.388039,39.5845925 19.0933022,39.4582767 18.8827759,39.2477504 C18.4617232,38.8266977 18.4617232,38.1109083 18.8827759,37.6477504 L25.9143548,30.6161714 L18.8827759,23.5845925 C18.4617232,23.1635398 18.4617232,22.4477504 18.8827759,21.9845925 C19.3038285,21.5635398 20.019618,21.5635398 20.4827759,21.9845925 L27.5143548,29.0161714 L34.5459338,21.9845925 C34.9669864,21.5635398 35.6827759,21.5635398 36.1459338,21.9845925 C36.6090917,22.4056451 36.5669864,23.1214346 36.1459338,23.5845925 L29.1143548,30.6161714 L36.1459338,37.6477504 Z" id="Shape"></path>
            <path d="M4.18541778,12.0802667 C4.14361778,12.0513333 4.10841778,12.0244 4.07891778,12 C4.10841778,11.9756 4.14361778,11.9486667 4.18541778,11.9197333 C4.44691778,11.7384 4.86431778,11.5441333 5.44601778,11.3490667 C6.60131778,10.9616 8.29491778,10.6064 10.4132178,10.3058667 C14.6434178,9.70586667 20.4999178,9.33333333 26.9773178,9.33333333 C33.4547178,9.33333333 39.3112178,9.70586667 43.5414178,10.3058667 C45.6597178,10.6064 47.3533178,10.9616 48.5086178,11.3490667 C49.0903178,11.5441333 49.5077178,11.7384 49.7692178,11.9197333 C49.8859178,12.0005333 49.9512178,12.0652 49.9835178,12.1053333 C50.0214178,12.4234667 50.2280178,12.6666667 50.4773178,12.6666667 C50.7534178,12.6666667 50.9773178,12.3681333 50.9773178,12 C50.9773178,11.6574667 50.8527178,11.3874667 50.7176178,11.1988 C50.5845178,11.0129333 50.4120178,10.8625333 50.2305178,10.7366667 C49.8659178,10.484 49.3600178,10.2597333 48.7525178,10.056 C47.5295178,9.64586667 45.7816178,9.2828 43.6472178,8.98 C39.3720178,8.3736 33.4786178,8 26.9773178,8 C20.4760178,8 14.5826178,8.3736 10.3074178,8.98 C8.17301778,9.2828 6.42511778,9.64586667 5.20211778,10.056 C4.59461778,10.2597333 4.08871778,10.484 3.72411778,10.7366667 C3.54261778,10.8625333 3.37011778,11.0129333 3.23701778,11.1988 C3.10191778,11.3874667 2.97731778,11.6574667 2.97731778,12 C2.97731778,12.3425333 3.10191778,12.6125333 3.23701778,12.8012 C3.37011778,12.9870667 3.54261778,13.1374667 3.72411778,13.2633333 C4.08871778,13.516 4.59461778,13.7402667 5.20211778,13.944 C6.42511778,14.3541333 8.17301778,14.7172 10.3074178,15.02 C14.5826178,15.6264 20.4760178,16 26.9773178,16 C29.9813178,16 32.8547178,15.9202667 35.4979178,15.7746667 C35.7738178,15.7594667 35.9883178,15.4489333 35.9769178,15.0810667 C35.9655178,14.7132 35.7326178,14.4273333 35.4567178,14.4425333 C32.8279178,14.5872 29.9683178,14.6666667 26.9773178,14.6666667 C20.4999178,14.6666667 14.6434178,14.2941333 10.4132178,13.6941333 C8.29491778,13.3936 6.60131778,13.0384 5.44601778,12.6509333 C4.86431778,12.4558667 4.44691778,12.2616 4.18541778,12.0802667 Z" id="Path"></path>
        </g>
    </g>
</svg>