<?xml version="1.0" encoding="UTF-8"?>
<svg width="68px" height="68px" viewBox="0 0 68 68" version="1.1" xmlns="http://www.w3.org/2000/svg" xmlns:xlink="http://www.w3.org/1999/xlink">
    <title>error</title>
    <g id="error" stroke="none" stroke-width="1" fill="none" fill-rule="evenodd">
        <g id="Group-13-Copy" transform="translate(9.000000, 8.500000)" fill="#F19D38" fill-rule="nonzero">
            <path d="M46.25,10 C47.973125,10 49.375,8.598125 49.375,6.875 C49.375,5.151875 47.973125,3.75 46.25,3.75 C44.526875,3.75 43.125,5.151875 43.125,6.875 C43.125,8.598125 44.526875,10 46.25,10 Z" id="Path"></path>
            <path d="M6.875,14.375 C6.875,13.341125 6.033875,12.5 5,12.5 C3.966125,12.5 3.125,13.341125 3.125,14.375 C3.125,15.408875 3.966125,16.25 5,16.25 C6.033875,16.25 6.875,15.408875 6.875,14.375 Z" id="Path"></path>
            <circle id="Oval" cx="48.4375" cy="20.3125" r="1"></circle>
            <circle id="Oval" cx="37.1875" cy="0.9375" r="1"></circle>
            <circle id="Oval" cx="14.0625" cy="1.5625" r="1"></circle>
            <circle id="Oval" cx="0.9375" cy="26.5625" r="1"></circle>
            <circle id="Oval" cx="15.3125" cy="49.0625" r="1"></circle>
            <circle id="Oval" cx="41.5625" cy="47.8125" r="1"></circle>
            <g id="Group-11" transform="translate(3.375000, 3.750000)">
                <path d="M4.97436554,39.3440566 L38.9168046,39.3440566 C40.6940193,39.3440566 42.3361995,38.3958009 43.2247573,36.8566591 C44.113315,35.3175173 44.1132586,33.4212529 43.2246094,31.8821639 L26.2538777,2.48715903 C25.3652211,0.94809093 23.7230098,7.10542736e-15 21.9458094,7.10542736e-15 C20.168609,7.10542736e-15 18.5263978,0.94809093 17.6377411,2.48715903 L0.666526512,31.8821639 C-0.222125743,33.4212582 -0.222178835,35.3175299 0.666387237,36.8566739 C1.55495331,38.3958179 3.19714468,39.3440566 4.97436554,39.3440566 Z M2.3563948,32.8584273 L19.3276143,3.46294439 C19.8677761,2.52752336 20.8659539,1.9514391 21.9461332,1.9514391 C23.0263125,1.9514391 24.0243829,2.52791055 24.5643704,3.4634322 L41.5351021,32.8579639 C42.0752054,33.7933596 42.0752485,34.9458438 41.5352154,35.88128 C40.9951822,36.8167162 39.997118,37.3930127 38.9169899,37.3930127 L4.9745509,37.3930127 C3.89449972,37.3930127 2.89647585,36.8168686 2.35643519,35.8815256 C1.81639454,34.9461825 1.81638472,33.7937796 2.35640944,32.8584273 L2.3563948,32.8584273 Z" id="Shape"></path>
                <path d="M4.97453627,35.4417932 L38.9169753,35.4417932 C39.2999836,35.4417932 39.6538665,35.2373446 39.8453609,34.905644 C40.0368554,34.5739435 40.0368794,34.165287 39.8454241,33.8335639 L22.8746924,4.43951025 C22.6833972,4.10750597 22.3294606,3.90262836 21.9462887,3.90262836 C21.5631169,3.90262836 21.2089655,4.1067315 21.0173216,4.43853464 L4.04607285,33.8340371 C3.85470363,34.1657115 3.85478056,34.574277 4.04627467,34.9058794 C4.23776878,35.2374818 4.5915985,35.4417932 4.97452163,35.4417932 L4.97453627,35.4417932 Z M20.5272192,13.7059541 C20.5272192,12.9226204 21.1622367,12.2876029 21.9455704,12.2876029 C22.7289042,12.2876029 23.3639216,12.9226204 23.3639216,13.7059541 L23.3639216,23.433759 C23.3639216,24.2170928 22.7289042,24.8521102 21.9455704,24.8521102 C21.1622367,24.8521102 20.5272192,24.2170928 20.5272192,23.433759 L20.5272192,13.7059541 Z M21.9456729,27.6113688 C22.7124824,27.6113688 23.4037881,28.0732802 23.6972348,28.7817193 C23.9906814,29.4901584 23.8284798,30.3056081 23.2862642,30.847825 C22.7440487,31.3900419 21.9285995,31.5522457 21.2201596,31.2588008 C20.5117198,30.965356 20.0498046,30.2740515 20.0498046,29.507242 C20.0498046,28.4601865 20.8986174,27.6113688 21.9456729,27.6113688 Z" id="Shape"></path>
            </g>
        </g>
    </g>
</svg>