<?xml version="1.0" encoding="UTF-8"?>
<svg width="53px" height="53px" viewBox="0 0 53 53" version="1.1" xmlns="http://www.w3.org/2000/svg" xmlns:xlink="http://www.w3.org/1999/xlink">
    <title>Group 34</title>
    <g id="Page-1" stroke="none" stroke-width="1" fill="none" fill-rule="evenodd">
        <g id="Group-31" transform="translate(0.875000, 0.831954)">
            <rect id="Rectangle-Copy-4" fill="#EEE5FF" x="0" y="0" width="52" height="52" rx="8"></rect>
            <g id="user-(1)" transform="translate(10.000000, 15.500000)" fill-rule="nonzero">
                <path d="M25.7216782,5.58318534 C23.8057841,5.58318534 22.2458004,7.14316904 22.2458004,9.05906314 C22.2458004,10.9749572 23.8057841,12.5349409 25.7216782,12.5349409 C27.6375723,12.5349409 29.197556,10.9749572 29.197556,9.05906314 C29.197556,7.14316904 27.6375723,5.58318534 25.7216782,5.58318534 Z M25.7216782,11.1446029 C24.5718289,11.1446029 23.6361385,10.2089124 23.6361385,9.05906314 C23.6361385,7.90921385 24.5718289,6.97352342 25.7216782,6.97352342 C26.8715275,6.97352342 27.8072179,7.90921385 27.8072179,9.05906314 C27.8072179,10.2089124 26.8714623,11.1446029 25.7216782,11.1446029 Z" id="Shape" fill="#D1BCFF"></path>
                <path d="M6.35535642,5.58318534 C4.43802851,5.58318534 2.87947862,7.14316904 2.87947862,9.05906314 C2.87947862,10.9749572 4.43946232,12.5349409 6.35535642,12.5349409 C8.27125051,12.5349409 9.83123422,10.9749572 9.83123422,9.05906314 C9.83123422,7.14316904 8.27261914,5.58318534 6.35535642,5.58318534 Z M6.35535642,11.1446029 C5.20550713,11.1446029 4.2698167,10.2089124 4.2698167,9.05906314 C4.2698167,7.90921385 5.20550713,6.97352342 6.35535642,6.97352342 C7.5052057,6.97352342 8.44089613,7.90921385 8.44089613,9.05906314 C8.44089613,10.2089124 7.50514053,11.1446029 6.35535642,11.1446029 Z" id="Shape" fill="#D1BCFF"></path>
                <path d="M25.7216782,13.9253442 C24.5774338,13.9253442 23.4567821,14.2381752 22.4807495,14.8290998 C22.1540367,15.0293116 22.0483259,15.4561303 22.247169,15.784277 C22.4487495,16.1124236 22.8741996,16.2167006 23.2023462,16.0178574 C23.9600489,15.5576049 24.8304358,15.3156823 25.7216782,15.3156823 C28.4050509,15.3156823 30.5879593,17.4985255 30.5879593,20.1819633 C30.5879593,20.5657026 30.8994216,20.877165 31.2831609,20.877165 C31.6669002,20.877165 31.9783625,20.5657026 31.9783625,20.1819633 C31.9783625,16.7324807 29.1711609,13.9253442 25.7216782,13.9253442 Z" id="Path" fill="#D1BCFF"></path>
                <path d="M9.49617923,14.827666 C8.52151527,14.2381752 7.40092872,13.9253442 6.25661914,13.9253442 C2.80713646,13.9253442 0,16.7324807 0,20.1819633 C0,20.5657026 0.311462322,20.877165 0.695201629,20.877165 C1.07894094,20.877165 1.39040326,20.5657026 1.39040326,20.1819633 C1.39033809,17.4985255 3.57324644,15.3156823 6.25661914,15.3156823 C7.14786151,15.3156823 8.0181833,15.5576049 8.77458248,16.0164236 C9.10129532,16.2152668 9.52954786,16.1109898 9.72975967,15.7828432 C9.92997149,15.4546965 9.82426069,15.0278778 9.49617923,14.827666 Z" id="Path" fill="#D1BCFF"></path>
                <path d="M15.9891161,0.0217026477 C13.3057434,0.0217026477 11.122835,2.20454582 11.122835,4.88798371 C11.122835,7.57142159 13.3056782,9.75426477 15.9891161,9.75426477 C18.672554,9.75426477 20.8553971,7.57135642 20.8553971,4.88798371 C20.8553971,2.204611 18.672554,0.0217026477 15.9891161,0.0217026477 Z M15.9891161,8.36386151 C14.073222,8.36386151 12.5132383,6.8038778 12.5132383,4.88798371 C12.5132383,2.97208961 14.073222,1.41210591 15.9891161,1.41210591 C17.9050102,1.41210591 19.4649939,2.97208961 19.4649939,4.88798371 C19.4649939,6.8038778 17.9050754,8.36386151 15.9891161,8.36386151 Z" id="Shape" fill="#8A4FFC"></path>
                <path d="M15.9891161,11.1446029 C11.0060448,11.1446029 6.9517556,15.1988921 6.9517556,20.1819633 C6.9517556,20.5657026 7.26321792,20.877165 7.64695723,20.877165 C8.03069654,20.877165 8.34215886,20.5657026 8.34215886,20.1819633 C8.34215886,15.965002 11.7721548,12.5350061 15.9891161,12.5350061 C20.2060774,12.5350061 23.6360733,15.965002 23.6360733,20.1819633 C23.6360733,20.5657026 23.9475356,20.877165 24.3312749,20.877165 C24.7150143,20.877165 25.0264766,20.5657026 25.0264766,20.1819633 C25.0264766,15.1988921 20.9721874,11.1446029 15.9891161,11.1446029 Z" id="Path" fill="#8A4FFC"></path>
            </g>
            <circle id="Oval" fill="#8A4FFC" cx="25.8803362" cy="20.3134859" r="3.68800108"></circle>
        </g>
    </g>
</svg>