<svg xmlns="http://www.w3.org/2000/svg" width="42" height="42" viewBox="0 0 42 42">
  <g id="Group_171" data-name="Group 171" transform="translate(-735 29)">
    <circle id="Ellipse_54" data-name="Ellipse 54" cx="21" cy="21" r="21" transform="translate(735 -29)" fill="#fff"/>
    <g id="carousel-arrow" transform="translate(735 -29)">
      <path id="Path_231" data-name="Path 231" d="M21,0A21,21,0,1,0,42,21,21,21,0,0,0,21,0Zm0,40.6A19.6,19.6,0,1,1,40.6,21,19.6,19.6,0,0,1,21,40.6Zm0,0" fill="#9e9e9e"/>
      <path id="Path_232" data-name="Path 232" d="M142.09,145.408a.62.62,0,0,0-.018-.106.6.6,0,0,0-.026-.11c-.008-.022-.014-.042-.024-.063a.8.8,0,0,0-.059-.091c-.015-.022-.021-.049-.038-.07l-7.365-8.838a.737.737,0,1,0-1.131.943l6.359,7.63H120.737a.737.737,0,1,0,0,1.473h19.051l-6.359,7.63a.737.737,0,1,0,1.131.943l7.365-8.838c.018-.022.023-.048.038-.07a.8.8,0,0,0,.059-.091c.01-.02.015-.041.024-.063a.6.6,0,0,0,.026-.11.62.62,0,0,0,.018-.106c0-.011.006-.02.006-.032S142.091,145.419,142.09,145.408Zm0,0" transform="translate(-110.048 -124.44)" fill="#9e9e9e"/>
    </g>
  </g>
</svg>
