<?xml version="1.0" standalone="no"?>
<!DOCTYPE svg PUBLIC "-//W3C//DTD SVG 1.1//EN" "http://www.w3.org/Graphics/SVG/1.1/DTD/svg11.dtd" >
<svg xmlns="http://www.w3.org/2000/svg">
<metadata>Generated by IcoMoon</metadata>
<defs>
<font id="icomoon" horiz-adv-x="1024">
<font-face units-per-em="1024" ascent="960" descent="-64" />
<missing-glyph horiz-adv-x="1024" />
<glyph unicode="&#x20;" horiz-adv-x="512" d="" />
<glyph unicode="&#xe900;" glyph-name="Alert" horiz-adv-x="964" d="M614.020 81.972c-4.442-72.030-64.267-129.075-137.416-129.075s-132.974 57.045-137.416 129.075h-206.615c-47.624 0-86.221 38.51-86.221 86.051 0 47.473 38.568 86.050 86.086 86.050 9.44 0 17.174 7.738 17.174 17.24v206.504c0 145.559 95.841 271.924 232.336 313.073v22.496c0 52.257 42.438 94.67 94.655 94.67 52.309 0 94.655-42.316 94.655-94.67v-22.498c136.491-41.155 232.336-167.543 232.336-313.071v-206.504c0-9.598 7.646-17.24 17.174-17.24 47.442 0 86.086-38.569 86.086-86.050s-38.636-86.051-86.221-86.051h-206.615zM569.215 71.531h-185.222c3.935-47.7 43.895-85.185 92.611-85.185s88.676 37.485 92.611 85.185zM406.074 745.715c-123.603-31.798-211.533-143.684-211.533-273.17v-199.087c0-27.482-22.309-49.805-49.741-49.805-27.483 0-49.811-22.333-49.811-49.775 0-27.49 22.337-49.776 49.94-49.776h663.351c27.562 0 49.94 22.341 49.94 49.776s-22.385 49.775-49.811 49.775c-27.509 0-49.741 22.221-49.741 49.805v199.087c0 129.456-87.936 241.367-211.534 273.169l-12.458 3.205v47.143c0 32.141-25.964 58.086-58.072 58.086-32.019 0-58.072-26.037-58.072-58.086v-47.141l-12.458-3.205z" />
<glyph unicode="&#xe901;" glyph-name="Approve" d="M143.939 801.085c150.201 160.704 386.554 198.727 577.515 92.906v0l-32.083-60.75c-128.63 71.239-284.315 67.824-409.858-8.99s-202.432-215.699-202.419-365.633c0-235.112 185.831-425.708 415.065-425.708s415.065 190.596 415.065 425.708c-0.013 28.63-2.794 57.189-8.302 85.256v0l65.962 13.577c6.386-32.537 9.618-65.643 9.648-98.833-0.044-222.616-145.049-417.786-354.31-476.888s-431.239 32.423-542.389 223.635c-111.149 191.212-84.094 435.015 66.106 595.718zM948.955 923.791l49.359-46.943-503.239-555.722-185.433 263.249 54.519 40.385 137.42-195.020 447.373 494.051z" />
<glyph unicode="&#xe902;" d="M173.104 939.148h655.36c90.486 0 163.84-73.354 163.84-163.84v-655.36c0-90.486-73.354-163.84-163.84-163.84h-655.36c-90.486 0-163.84 73.354-163.84 163.84v655.36c0 90.486 73.354 163.84 163.84 163.84z" />
<glyph unicode="&#xe903;" d="M591.875 584.079h173.551v49.722h-173.551v-49.722zM632.99 475.588c-11.059-11.252-18.033-26.496-20.885-45.731h134.98c-1.426 20.528-8.439 36.037-20.846 46.719-12.562 10.606-28.013 15.89-46.509 15.89-20.037 0-35.681-5.626-46.74-16.878v0 0zM750.129 542.34c20.923-9.199 38.147-23.797 51.711-43.716 12.369-17.562 20.307-37.938 23.929-61.088 2.119-13.533 2.967-33.148 2.62-58.655h-218.21c1.31-29.613 11.637-50.406 31.366-62.305 11.945-7.413 26.318-11.138 43.195-11.138 17.764 0 32.29 4.524 43.426 13.533 6.127 4.904 11.521 11.67 16.145 20.337h79.955c-2.119-17.486-11.829-35.315-29.015-53.41-26.819-28.701-64.388-43.070-112.669-43.070-39.881 0-75.061 12.088-105.464 36.341-30.556 24.215-45.738 63.673-45.738 118.261 0 51.205 13.756 90.473 41.23 117.805 27.551 27.256 63.193 40.979 107.082 40.979 26.087 0 49.553-4.638 70.438-13.875v0 0zM253.829 428.793v-106.553h98.335c17.571 0 31.288 2.357 41.037 7.033 17.764 8.743 26.626 25.317 26.626 49.874 0 20.832-8.554 35.087-25.778 42.88-9.633 4.334-23.158 6.614-40.498 6.766h-99.722zM253.829 583.053v-88.154h98.489c17.532 0 31.828 3.307 42.848 9.922 10.943 6.614 16.453 18.323 16.453 35.049 0 18.665-7.244 30.943-21.732 36.95-12.562 4.144-28.514 6.234-47.896 6.234h-88.162zM473.773 609.853c12.369-16.992 18.573-37.292 18.573-60.974 0-24.367-6.204-44.020-18.727-58.846-7.013-8.287-17.301-15.89-30.903-22.732 20.653-7.451 36.221-19.197 46.817-35.277 10.481-16.042 15.76-35.581 15.76-58.541 0-23.683-6.011-44.932-18.072-63.711-7.629-12.431-17.186-22.922-28.668-31.438-12.908-9.77-28.129-16.422-45.738-20.071-17.609-3.611-36.644-5.36-57.221-5.36h-182.49v399.526h195.707c49.399-0.722 84.348-14.901 104.963-42.576v0 0z" />
<glyph unicode="&#xe904;" glyph-name="Browse" d="M388.202 912.359h-260.61c-54.089 0-98.343-44.255-98.343-98.343v-260.61c0-54.089 44.255-98.344 98.343-98.344h260.61c54.089 0 98.343 44.255 98.343 98.344v260.61c0 54.088-44.255 98.343-98.343 98.343zM437.373 553.406c0-27.044-22.127-49.172-49.172-49.172h-260.61c-27.044 0-49.172 22.127-49.172 49.172v260.61c0 27.044 22.127 49.171 49.172 49.171h260.61c27.044 0 49.172-22.127 49.172-49.171v-260.61zM894.67 912.359h-260.61c-54.089 0-98.343-44.255-98.343-98.343v-260.61c0-54.089 44.255-98.344 98.343-98.344h260.61c54.089 0 98.343 44.255 98.343 98.344v260.61c0 54.088-44.255 98.343-98.343 98.343zM943.842 553.406c0-27.044-22.127-49.172-49.172-49.172h-260.61c-27.044 0-49.172 22.127-49.172 49.172v260.61c0 27.044 22.127 49.171 49.172 49.171h260.61c27.044 0 49.172-22.127 49.172-49.171v-260.61zM388.202 405.891h-260.61c-54.089 0-98.343-44.255-98.343-98.344v-260.61c0-54.089 44.255-98.343 98.343-98.343h260.61c54.089 0 98.343 44.254 98.343 98.343v260.61c0 54.089-44.255 98.344-98.343 98.344zM437.373 46.937c0-27.044-22.127-49.171-49.172-49.171h-260.61c-27.044 0-49.172 22.127-49.172 49.171v260.61c0 27.044 22.127 49.172 49.172 49.172h260.61c27.044 0 49.172-22.127 49.172-49.172v-260.61zM894.67 405.891h-260.61c-54.089 0-98.343-44.255-98.343-98.344v-260.61c0-54.089 44.255-98.343 98.343-98.343h260.61c54.089 0 98.343 44.254 98.343 98.343v260.61c0 54.089-44.255 98.344-98.343 98.344zM943.842 46.937c0-27.044-22.127-49.171-49.172-49.171h-260.61c-27.044 0-49.172 22.127-49.172 49.171v260.61c0 27.044 22.127 49.172 49.172 49.172h260.61c27.044 0 49.172-22.127 49.172-49.172v-260.61z" />
<glyph unicode="&#xe905;" glyph-name="BrowseImage" horiz-adv-x="985" d="M963.191 948.542h-916.181c-8.024 0-14.525-6.619-14.525-14.8v-932.817c0-8.181 6.501-14.8 14.525-14.8h916.17c8.034 0 14.536 6.619 14.536 14.8v932.817c0 8.181-6.501 14.8-14.525 14.8zM935.196 35.333h-856.716v872.293h856.716v-872.293zM603.457 527.089c4.789-0.043 9.568-2.427 12.299-6.619v0l249.026-382.571c2.962-4.545 3.224-10.373 0.693-15.163-2.531-4.801-7.457-7.796-12.803-7.796v0h-695.154c-5.451 0-10.45 3.112-12.929 8.063-2.489 4.94-2.048 10.875 1.145 15.388v0l207.247 292.511c2.689 3.807 6.984 6.085 11.595 6.138 4.464 0.364 8.969-2.085 11.752-5.817v0l87.917-117.404 127.092 206.331c2.626 4.267 7.184 6.887 12.12 6.94zM600.549 479.178l-117.483-190.749 104.881-140.056h227.946l-215.343 330.805zM364.91 393.112l-173.405-244.738h356.679l-183.274 244.738zM254.856 838.677c62.154 0 112.703-51.479 112.703-114.752 0-63.263-50.559-114.731-112.703-114.731s-112.703 51.468-112.703 114.731c0 63.284 50.549 114.752 112.703 114.752zM254.856 800.96c-43.125 0-78.217-34.549-78.217-77.029 0-42.471 35.092-77.020 78.217-77.020s78.217 34.549 78.217 77.020c0 42.48-35.092 77.029-78.217 77.029z" />
<glyph unicode="&#xe906;" glyph-name="Category" d="M370.455 912.359h-260.61c-54.089 0-98.344-44.255-98.344-98.343v-260.61c0-54.089 44.255-98.344 98.344-98.344h260.61c54.089 0 98.343 44.255 98.343 98.344v260.61c0 54.088-44.254 98.343-98.343 98.343zM419.627 553.406c0-27.044-22.127-49.172-49.172-49.172h-260.61c-27.044 0-49.172 22.127-49.172 49.172v260.61c0 27.044 22.127 49.171 49.172 49.171h260.61c27.044 0 49.172-22.127 49.172-49.171v-260.61zM876.923 912.359h-260.61c-54.089 0-98.343-44.255-98.343-98.343v-260.61c0-54.089 44.254-98.344 98.343-98.344h260.61c54.089 0 98.343 44.255 98.343 98.344v260.61c0 54.088-44.254 98.343-98.343 98.343zM926.095 553.406c0-27.044-22.127-49.172-49.172-49.172h-260.61c-27.044 0-49.172 22.127-49.172 49.172v260.61c0 27.044 22.127 49.171 49.172 49.171h260.61c27.044 0 49.172-22.127 49.172-49.171v-260.61zM370.455 405.891h-260.61c-54.089 0-98.344-44.255-98.344-98.344v-260.61c0-54.089 44.255-98.343 98.344-98.343h260.61c54.089 0 98.343 44.254 98.343 98.343v260.61c0 54.089-44.254 98.344-98.343 98.344zM419.627 46.937c0-27.044-22.127-49.171-49.172-49.171h-260.61c-27.044 0-49.172 22.127-49.172 49.171v260.61c0 27.044 22.127 49.172 49.172 49.172h260.61c27.044 0 49.172-22.127 49.172-49.172v-260.61zM876.923 405.891h-260.61c-54.089 0-98.343-44.255-98.343-98.344v-260.61c0-54.089 44.254-98.343 98.343-98.343h260.61c54.089 0 98.343 44.254 98.343 98.343v260.61c0 54.089-44.254 98.344-98.343 98.344zM926.095 46.937c0-27.044-22.127-49.171-49.172-49.171h-260.61c-27.044 0-49.172 22.127-49.172 49.171v260.61c0 27.044 22.127 49.172 49.172 49.172h260.61c27.044 0 49.172-22.127 49.172-49.172v-260.61z" />
<glyph unicode="&#xe907;" glyph-name="Dialogue" horiz-adv-x="1084" d="M763.748 550.75c-32.331 0-58.496-26.203-58.496-58.647 0-32.3 26.165-58.575 58.496-58.575s58.496 26.275 58.496 58.575c0 32.445-26.165 58.647-58.496 58.647zM529.838 550.75c-32.331 0-58.496-26.203-58.496-58.647 0-32.3 26.165-58.575 58.496-58.575 32.256 0 58.496 26.275 58.496 58.575 0 32.445-26.241 58.647-58.496 58.647zM295.928 550.75c-32.331 0-58.496-26.203-58.496-58.647 0-32.3 26.165-58.575 58.496-58.575 32.256 0 58.496 26.275 58.496 58.575 0 32.445-26.241 58.647-58.496 58.647zM529.838 81.715c-32.256 0-63.684 2.613-94.361 6.968-18.722-21.993-45.639-48.559-84.511-76.431-110.15-78.898-288.947-47.832-288.947-47.832s91.504 93.488 116.165 222.977c-106.992 75.124-174.662 183.636-174.662 304.706 0 226.751 235.639 410.46 526.316 410.46s526.315-183.709 526.315-410.46c0-226.606-235.639-410.387-526.315-410.387z" />
<glyph unicode="&#xe908;" glyph-name="Dislike" horiz-adv-x="1092" d="M206.296 319.823c48.849-3.186 93.449-1.062 151.855 4.248 24.424 2.124 33.982-31.858 28.672-83.892-7.433-90.264-18.053-153.979-25.486-206.014-14.867-93.449 117.874-109.378 146.546-37.167 27.61 69.025 104.069 313.268 251.676 381.231 16.991 7.433 27.61 25.486 27.61 44.601 0 79.644 0 277.163 1.062 359.993 0 22.3-14.867 41.415-36.105 47.787-82.83 22.3-288.844 74.335-434.328 74.335-94.511 0-149.732-7.433-169.908-95.573-21.239-92.388-47.787-228.314-67.963-333.445-21.239-112.564 27.61-149.732 126.369-156.103zM863.628 355.929h196.456c12.743 0 23.362 10.619 23.362 23.362v461.938c0 12.743-10.619 23.362-23.362 23.362h-196.456c-12.743 0-23.362-10.619-23.362-23.362v-461.938c0-12.743 10.619-23.362 23.362-23.362zM962.387 789.195c24.424 0 43.539-19.115 43.539-43.539s-19.115-43.539-43.539-43.539c-24.424 0-43.539 19.115-43.539 43.539s19.115 43.539 43.539 43.539z" />
<glyph unicode="&#xe909;" glyph-name="Docs" horiz-adv-x="833" d="M812.227 685.762c0.292 9.813-3.719 22.926-20.226 37.985l-225.707 205.649c-12.398 11.302-24.966 17.214-37.462 18.114v0.311h-2.662c-0.17 0-0.34 0.056-0.511 0.056-0.231 0-0.45-0.056-0.669-0.056h-427.93c-46.846 0-84.952-34.851-84.952-77.681v-844.768c0-42.83 38.106-77.681 84.952-77.681h630.433c46.846 0 84.952 34.851 84.952 77.681v660.39h-0.219zM528.832 898.601c0 3.045 0.255 5.423 0.596 7.224 1.617-1.045 3.659-2.567 6.017-4.712l225.695-205.66c2.285-2.1 3.914-3.901 5.069-5.345-1.945-0.311-4.497-0.511-7.694-0.511h-189.57c-22.122 0-40.099 16.459-40.099 36.673v172.332h-0.012zM768.141 25.372c0-20.493-18.233-37.162-40.646-37.162h-630.433c-22.414 0-40.646 16.67-40.646 37.162v844.768c0 20.493 18.233 37.162 40.646 37.162h388.73c-0.304-2.801-0.669-5.557-0.669-8.702v-172.332c0-42.252 37.608-76.648 83.821-76.648h189.57c3.488 0 6.576 0.256 9.627 0.533v-624.783zM656.229 489.214h-487.903c-12.24 0-22.159-9.057-22.159-20.259 0-11.191 9.919-20.248 22.159-20.248h487.903c12.24 0 22.159 9.057 22.159 20.248 0 11.202-9.919 20.259-22.159 20.259zM656.229 311.525h-487.903c-12.24 0-22.159-9.057-22.159-20.259s9.919-20.259 22.159-20.259h487.903c12.24 0 22.159 9.057 22.159 20.259s-9.919 20.259-22.159 20.259zM656.229 133.837h-487.903c-12.24 0-22.159-9.057-22.159-20.259s9.919-20.259 22.159-20.259h487.903c12.24 0 22.159 9.057 22.159 20.259s-9.919 20.259-22.159 20.259zM168.326 578.708h215.375c12.24 0 22.159 9.057 22.159 20.259v196.914c0 11.191-9.919 20.259-22.159 20.259h-215.375c-12.24 0-22.159-9.057-22.159-20.259v-196.914c0-11.202 9.919-20.259 22.159-20.259zM190.485 775.623h171.070v-156.407h-171.070v156.407z" />
<glyph unicode="&#xe90a;" glyph-name="Download" d="M510.406 927.604c271.026 0 491.52-220.5 491.52-491.52s-220.494-491.52-491.52-491.52c-271.026 0-491.52 220.5-491.52 491.52s220.494 491.52 491.52 491.52zM510.406 889.486c-250.005 0-453.402-203.397-453.402-453.402s203.397-453.402 453.402-453.402c250.005 0 453.402 203.397 453.402 453.402s-203.397 453.402-453.402 453.402zM671.542 248.68c6.786 0 12.288-5.496 12.288-12.288s-5.502-12.288-12.288-12.288v0h-323.628c-6.786 0-12.288 5.496-12.288 12.288s5.502 12.288 12.288 12.288v0zM510.406 672.172c6.786 0 12.288-5.496 12.288-12.288v0-328.238l143.658 90.458c5.754 3.588 13.332 1.884 16.944-3.852 3.618-5.748 1.892-13.332-3.852-16.956v0l-162.492-102.312c-1.998-1.26-4.272-1.884-6.546-1.884s-4.548 0.624-6.546 1.884v0l-162.492 102.312c-5.744 3.624-7.47 11.208-3.852 16.956 3.606 5.748 11.184 7.452 16.944 3.852v0l143.658-90.458v328.238c0 6.792 5.502 12.288 12.288 12.288z" />
<glyph unicode="&#xe90b;" d="M173.104 939.148h655.36c90.486 0 163.84-73.354 163.84-163.84v-655.36c0-90.486-73.354-163.84-163.84-163.84h-655.36c-90.486 0-163.84 73.354-163.84 163.84v655.36c0 90.486 73.354 163.84 163.84 163.84z" />
<glyph unicode="&#xe90c;" d="M657.177 215.542c-2.852 16.876-17.765 99.023-54.488 199.856 90.364 14.449 168.628-10.326 174.408-12.214-12.447-77.985-57.108-145.22-119.92-187.642v0 0zM500.803 167.764c-67.744 0-129.862 24.081-178.3 64.153 3.699-3.005 6.281-4.893 6.281-4.893s53.64 116.978 219.609 174.811c0.617 0.231 1.272 0.385 1.888 0.578 39.382-102.298 55.606-187.989 59.767-212.455-33.564-14.256-70.519-22.193-109.246-22.193v0 0zM220.925 447.648c0 2.967 0.154 5.895 0.231 8.823 4.971-0.116 143.234-3.237 287.315 39.879 8.015-15.682 15.684-31.672 22.697-47.585-3.699-1.002-7.36-2.119-11.021-3.352-151.018-48.779-227.625-184.637-227.625-184.637s0.116-0.116 0.116-0.154c-44.585 49.588-71.713 115.128-71.713 187.026v0 0zM381.384 700.675c3.738-4.97 55.49-75.134 103.928-161.21-134.371-35.717-251.015-34.292-258.375-34.176 18.15 86.693 76.376 158.552 154.447 195.387v0 0zM433.752 719.324c0-0.039-0.039-0.077-0.039-0.077s-0.347-0.077-0.848-0.154c0.308 0.077 0.578 0.116 0.886 0.231v0 0zM685.615 657.599c-0.694-1.040-40.539-61.725-146.201-101.296-47.822 87.887-100.383 157.704-104.583 163.252 21.156 5.125 43.236 7.899 65.971 7.899 70.827 0 135.527-26.432 184.813-69.855v0 0zM780.565 450.422c-4.046 0.886-98.764 21.269-194.909 9.17-2.004 4.778-3.969 9.594-6.050 14.41-5.819 13.717-12.1 27.279-18.612 40.611 110.518 45.119 155.372 109.965 155.911 110.736 39.228-47.662 63.004-108.54 63.659-174.927v0 0zM821.836 513.573c-4.316 21.037-10.79 41.805-19.152 61.61-8.169 19.419-18.381 38.145-30.211 55.638-11.676 17.339-25.163 33.675-39.961 48.471-14.836 14.834-31.136 28.281-48.515 39.994-17.495 11.867-36.223 22.001-55.644 30.246-19.807 8.323-40.539 14.796-61.578 19.072-21.579 4.431-43.775 6.704-65.971 6.704-22.235 0-44.431-2.273-66.010-6.704-21.040-4.277-41.772-10.75-61.578-19.072-19.421-8.245-38.149-18.379-55.683-30.246-17.341-11.713-33.641-25.16-48.477-39.994-14.797-14.796-28.246-31.132-39.961-48.471-11.83-17.493-22.042-36.218-30.211-55.638-8.401-19.805-14.836-40.572-19.152-61.61-4.393-21.538-6.628-43.732-6.628-65.925 0-22.27 2.235-44.464 6.628-66.041 4.316-21.037 10.751-41.767 19.152-61.533 8.169-19.419 18.381-38.222 30.211-55.715 11.715-17.339 25.163-33.598 39.961-48.471 14.836-14.796 31.136-28.204 48.477-39.956 17.533-11.829 36.261-22.001 55.683-30.208 19.807-8.4 40.539-14.796 61.578-19.072 21.579-4.47 43.775-6.704 66.010-6.704 22.196 0 44.392 2.235 65.971 6.704 21.040 4.277 41.772 10.673 61.578 19.072 19.421 8.207 38.149 18.379 55.644 30.208 17.379 11.752 33.679 25.16 48.515 39.956 14.797 14.873 28.284 31.132 39.961 48.471 11.83 17.493 22.042 36.295 30.211 55.715 8.362 19.766 14.836 40.495 19.152 61.533 4.393 21.577 6.628 43.77 6.628 66.041 0 22.193-2.235 44.387-6.628 65.925v0 0z" />
<glyph unicode="&#xe90d;" glyph-name="Expand" horiz-adv-x="979" d="M264.784 187.913l190.22-0.021c9.366 0.024 16.959-7.569 16.935-16.935 0-9.342-7.569-16.911-16.935-16.935h-230.911c-4.503 0-8.791 1.797-11.977 4.982-3.162 3.162-4.958 7.45-4.958 11.953v230.911c0 4.695 1.916 8.911 4.982 11.977s7.282 4.982 11.953 4.959c9.366 0.024 16.959-7.569 16.935-16.935v-189.811l192.409 192.409c3.32 3.32 7.656 4.946 11.992 4.946s8.672-1.626 11.958-4.946c6.64-6.606 6.64-17.344 0-23.95l-192.603-192.603zM766.615 737.214l-190.22 0.021c-9.366-0.024-16.959 7.569-16.935 16.935 0 9.342 7.569 16.911 16.935 16.935h230.911c4.503 0 8.791-1.797 11.977-4.982 3.162-3.162 4.958-7.45 4.958-11.953v-230.911c0-4.695-1.916-8.911-4.982-11.977s-7.282-4.982-11.953-4.959c-9.366-0.024-16.959 7.569-16.935 16.935v189.811l-192.409-192.409c-3.32-3.32-7.656-4.946-11.992-4.946s-8.672 1.626-11.958 4.946c-6.64 6.606-6.64 17.344 0 23.95l192.603 192.603z" />
<glyph unicode="&#xe90e;" glyph-name="Contribute" horiz-adv-x="1625" d="M172.096-64c-94.993 0.132-171.964 77.103-172.096 172.083v679.744c0.088 95.026 77.076 172.041 172.083 172.173h857.402c94.993-0.132 171.964-77.103 172.096-172.083v-122.287l372.616 203.688c4.772 2.659 10.468 4.225 16.53 4.225 19.018 0 34.437-15.41 34.45-34.425v-784.473c-0.013-19.016-15.432-34.426-34.45-34.426-6.062 0-11.758 1.566-16.706 4.314l0.176-0.090-372.925 203.61v-119.957c-0.088-95.011-77.085-172.008-172.087-172.096h-0.008zM68.9 787.904v-679.731c0.088-56.974 46.228-103.141 103.183-103.273h857.015c57.001 0.088 103.185 46.272 103.273 103.264v679.739c-0.088 56.958-46.238 103.108-103.187 103.196h-857.088c-56.976-0.044-103.152-46.22-103.196-103.191v-0.004zM1201.271 587.075v-280.544l355.314-193.801v668.3zM537.76 229.211v187.158h-187.235c-22.951 0-41.556 18.605-41.556 41.556s18.605 41.556 41.556 41.556h187.235v187.235c0 22.951 18.605 41.556 41.556 41.556s41.556-18.605 41.556-41.556v-187.235h187.158c22.951 0 41.556-18.605 41.556-41.556s-18.605-41.556-41.556-41.556h-187.158v-187.158c0-22.951-18.605-41.556-41.556-41.556s-41.556 18.605-41.556 41.556v0z" />
<glyph unicode="&#xe90f;" d="M173.104 939.148h655.36c90.486 0 163.84-73.354 163.84-163.84v-655.36c0-90.486-73.354-163.84-163.84-163.84h-655.36c-90.486 0-163.84 73.354-163.84 163.84v655.36c0 90.486 73.354 163.84 163.84 163.84z" />
<glyph unicode="&#xe910;" d="M664.624 770.673v-103.419l-59.437-0.16c-46.59 0-55.568-22.858-55.568-56.265v-74.008h110.981l-14.395-115.727h-96.586v-301.146h-115.764v301.146h-96.911v115.727h96.911v85.357c0 99.103 58.493 153.13 144.244 153.13 40.879 0 76.154-3.197 86.525-4.635z" />
<glyph unicode="&#xe911;" glyph-name="Favorites" horiz-adv-x="751" d="M73.385-42.11c21.862-11.002 47.533-8.886 67.28 5.642l228.919 168.269c2.821 2.116 6.629 2.116 9.45 0l233.714-169.256c11.284-8.18 24.401-12.272 37.801-12.272 10.014 0 20.028 2.398 29.338 7.053 21.721 11.143 35.262 33.146 35.262 57.547v826.533c0 35.685-28.915 64.6-64.459 64.6h-548.248c-35.544 0.141-64.459-28.915-64.459-64.459v-825.969c0-24.542 13.541-46.686 35.403-57.688zM235.447 638.157h282.094v-56.418h-282.094v56.418zM235.447 497.111h282.094v-56.418h-282.094v56.418z" />
<glyph unicode="&#xe912;" glyph-name="Files" horiz-adv-x="1075" d="M1044.197 656.322v-695.419h-1024v695.419h1024zM1000.724 613.816h-937.505v-607.894h937.505v607.894zM904.032 792.216v-53.769h-743.752v53.769h743.752zM782.545 956.506v-53.769h-500.654v53.769h500.654z" />
<glyph unicode="&#xe913;" glyph-name="Filter" horiz-adv-x="1178" d="M510.548 221.626c60.775 0 112.408-41.138 128.429-95.683l497.102-0.039c17.809 0 33.392-15.583 33.392-33.392s-15.583-33.391-33.392-33.391l-495.88-0.035c-14.455-56.744-67.231-100.139-129.651-100.139s-115.196 43.395-129.651 100.139l-313.34 0.035c-17.809 0-33.392 15.583-33.392 33.391s15.583 33.392 33.392 33.392l314.563 0.039c16.020 54.545 67.654 95.683 128.429 95.683zM510.548 154.844c-37.843 0-66.783-28.939-66.783-64.557s28.939-64.557 66.783-64.557c37.843 0 66.783 28.939 66.783 64.557s-31.165 64.557-66.783 64.557zM935.731 591.157c60.785 0 112.424-41.151 128.436-95.709l71.911-0.013c17.809 0 33.392-15.583 33.392-33.391s-15.583-33.392-33.392-33.392l-70.511-0.006c-14.182-58.016-67.146-100.168-129.837-100.168-62.438 0-115.227 43.42-129.663 100.19l-738.51-0.016c-17.809 0-33.392 15.583-33.392 33.392s15.583 33.391 33.392 33.391l739.517 0.031c15.753 55.695 67.59 95.691 128.657 95.691zM935.731 524.375c-37.843 0-66.783-28.939-66.783-64.557s28.939-64.557 66.783-64.557c37.843 0 66.783 28.939 66.783 64.557s-28.939 64.557-66.783 64.557zM334.687 958.461c59.964 0 111.028-40.047 127.768-93.506l673.623 0.010c17.809 0 33.392-15.583 33.392-33.391s-15.583-33.392-33.392-33.392l-671.193-0.023c-13.622-57.838-66.961-102.377-130.199-102.377s-116.577 44.539-130.199 102.377l-136.931 0.023c-17.809 0-33.392 15.583-33.392 33.392s15.583 33.391 33.392 33.391l139.119 0.013c16.484 54.541 67.754 93.483 128.011 93.483zM334.687 893.905c-37.843 0-66.783-28.939-66.783-64.557s28.939-64.557 66.783-64.557c37.843 0 66.783 28.939 66.783 64.557s-28.939 64.557-66.783 64.557z" />
<glyph unicode="&#xe914;" d="M481.355 495.025c7.025 3.436 14.737 5.236 22.557 5.266 29.085 0 52.663-23.578 52.663-52.663-0.030-7.82-1.831-15.532-5.266-22.557l18.801-18.783 134.396 241.916-241.933-134.396 18.783-18.783z" />
<glyph unicode="&#xe915;" d="M451.249 447.628c0.030 7.82 1.831 15.532 5.266 22.557l-18.801 18.783-134.378-241.916 241.916 134.396-18.783 18.783c-7.025-3.436-14.737-5.236-22.557-5.266-29.085 0-52.663 23.578-52.663 52.663z" />
<glyph unicode="&#xe916;" d="M503.912 939.148c-271.459 0-491.52-220.061-491.52-491.52s220.061-491.52 491.52-491.52c271.459 0 491.52 220.061 491.52 491.52-0.31 271.331-220.189 491.21-491.52 491.52zM135.272 430.074h-70.217c-9.695 0-17.554 7.859-17.554 17.554s7.859 17.554 17.554 17.554h70.217c9.695 0 17.554-7.859 17.554-17.554s-7.859-17.554-17.554-17.554zM486.358 886.486c0 9.695 7.859 17.554 17.554 17.554s17.554-7.859 17.554-17.554v-70.217c0-9.695-7.859-17.554-17.554-17.554s-17.554 7.859-17.554 17.554v70.217zM521.466 8.771c0-9.695-7.859-17.554-17.554-17.554s-17.554 7.859-17.554 17.554v70.217c0 9.695 7.859 17.554 17.554 17.554s17.554-7.859 17.554-17.554v-70.217zM765.014 684.875l-175.543-315.977c-0.14-0.263-0.404-0.386-0.562-0.614-1.693-2.067-3.586-3.96-5.652-5.652-0.228-0.158-0.351-0.421-0.614-0.562l-315.977-175.543c-6.847-3.786-15.374-2.583-20.906 2.95s-6.736 14.059-2.95 20.906l175.543 315.977c0.14 0.263 0.404 0.386 0.562 0.614 1.693 2.067 3.586 3.96 5.652 5.652 0.228 0.158 0.351 0.421 0.614 0.562l315.977 175.543c6.847 3.786 15.374 2.583 20.906-2.95s6.736-14.059 2.95-20.906v0zM942.769 430.074h-70.217c-9.695 0-17.554 7.859-17.554 17.554s7.859 17.554 17.554 17.554h70.217c9.695 0 17.554-7.859 17.554-17.554s-7.859-17.554-17.554-17.554z" />
<glyph unicode="&#xe917;" d="M544.872 447.628c0-22.622-18.338-40.96-40.96-40.96s-40.96 18.338-40.96 40.96c0 22.622 18.338 40.96 40.96 40.96s40.96-18.338 40.96-40.96z" />
<glyph unicode="&#xe918;" glyph-name="Home" horiz-adv-x="1084" d="M640.817-51.406h217.294c24.286 0 44.737 20.451 44.737 44.737v402.634h79.249c19.173 0 34.511 11.504 42.181 28.121 6.391 17.895 2.556 37.068-11.504 49.85l-462.709 426.92c-16.617 15.338-43.459 15.338-61.354 0l-462.709-426.92c-14.060-12.782-17.895-31.955-11.504-49.85s23.008-28.121 42.181-28.121h79.249v-402.634c0-24.286 20.451-44.737 44.737-44.737h217.294c24.286 0 44.737 20.451 44.737 44.737v273.536h153.384v-273.536c0-24.286 20.451-44.737 44.737-44.737zM436.305 317.994c-24.286 0-44.737-20.451-44.737-44.737v-273.535h-204.512v402.634c0 24.286-20.451 44.737-44.737 44.737h-70.301l447.371 412.859 447.371-412.859h-70.301c-24.286 0-44.737-20.451-44.737-44.737v-402.634h-204.512v273.535c0 24.286-20.451 44.737-44.737 44.737h-166.166z" />
<glyph unicode="&#xe919;" glyph-name="Language" d="M499.342 939.148c-271.459 0-491.52-220.061-491.52-491.52s220.061-491.52 491.52-491.52c271.459 0 491.52 220.061 491.52 491.52-0.31 271.331-220.189 491.21-491.52 491.52zM695.493 272.577c-0.123-0.158-0.14-0.369-0.281-0.509-0.65-0.72-1.387-1.334-2.036-2.036-5.009-5.477-10.24-10.743-15.694-15.799-1.299-1.194-2.58-2.387-3.915-3.511-5.582-4.95-11.375-9.62-17.361-14.043-1.229-0.913-2.422-1.755-3.669-2.738-6.366-4.576-12.943-8.859-19.731-12.85-0.93-0.544-1.755-1.141-2.756-1.755-7.303-4.178-14.804-8.016-22.505-11.516-0.492-0.211-0.948-0.474-1.439-0.685-8.157-3.659-16.501-6.888-24.997-9.672l-0.298-0.123c-8.646-2.836-17.435-5.215-26.331-7.127h-0.193c-8.531-1.802-17.203-3.195-26.015-4.178-0.439 0-0.86-0.158-1.299-0.211-18.38-1.966-36.916-1.966-55.296 0-0.439 0-0.86 0.158-1.299 0.211-8.812 0.971-17.484 2.364-26.015 4.178h-0.193c-8.896 1.912-17.685 4.291-26.331 7.127l-0.298 0.123c-8.496 2.785-16.84 6.013-24.997 9.672-0.492 0.211-0.965 0.474-1.457 0.685-7.689 3.511-15.184 7.349-22.487 11.516-0.93 0.544-1.755 1.141-2.756 1.755-6.776 4.002-13.353 8.286-19.731 12.85-1.246 0.895-2.44 1.755-3.669 2.738-5.986 4.476-11.779 9.146-17.361 14.043-1.334 1.176-2.616 2.37-3.915 3.511-5.454 5.021-10.685 10.287-15.694 15.799-0.65 0.702-1.387 1.317-2.036 2.036-0.14 0.14-0.158 0.351-0.281 0.509-89.553 99.521-89.553 250.582 0 350.103 0.123 0.158 0.14 0.369 0.281 0.509 0.65 0.72 1.387 1.334 2.036 2.036 5.009 5.477 10.24 10.743 15.694 15.799 1.299 1.194 2.58 2.387 3.915 3.511 5.582 4.95 11.375 9.62 17.361 14.043 1.229 0.913 2.422 1.843 3.669 2.738 6.366 4.588 12.943 8.871 19.731 12.85 0.93 0.544 1.755 1.141 2.756 1.755 7.303 4.19 14.81 8.028 22.522 11.516 0.474 0.228 0.93 0.474 1.404 0.685 8.169 3.652 16.518 6.886 25.015 9.69l0.298 0.105c8.646 2.836 17.435 5.215 26.331 7.127h0.193c8.531 1.802 17.203 3.195 26.015 4.178 0.439 0 0.86 0.158 1.299 0.211 18.38 1.966 36.916 1.966 55.296 0 0.439 0 0.86-0.158 1.299-0.211 8.812-0.96 17.484-2.352 26.015-4.178h0.193c8.896-1.912 17.685-4.291 26.331-7.127l0.281-0.105c8.504-2.801 16.859-6.035 25.032-9.69l1.387-0.667c7.724-3.511 15.237-7.355 22.54-11.533 0.93-0.544 1.755-1.141 2.756-1.755 6.776-4.002 13.353-8.286 19.731-12.85 1.246-0.895 2.44-1.755 3.669-2.738 5.986-4.476 11.779-9.146 17.361-14.043 1.334-1.176 2.616-2.37 3.915-3.511 5.465-5.021 10.696-10.287 15.694-15.799 0.65-0.702 1.387-1.317 2.036-2.036 0.14-0.14 0.158-0.351 0.281-0.509 89.553-99.521 89.553-250.582 0-350.103v0zM652.397 616.395l-1.229 1.123c-4.447 3.967-9.017 7.747-13.71 11.34-0.913 0.702-1.843 1.387-2.774 2.071-4.74 3.511-9.608 6.84-14.605 9.988l-2.967 1.755c-5.021 3.037-10.146 5.916-15.378 8.566-1.088 0.544-2.177 1.036-3.265 1.562-4.939 2.411-9.947 4.628-15.026 6.653 12.335-17.512 22.365-36.539 29.842-56.613 13.327 3.633 26.393 8.161 39.111 13.552zM408.34 333.771c24.236 4.592 48.792 7.292 73.447 8.075v88.228h-87.333c0.899-32.529 5.559-64.845 13.885-96.303v0zM590.343 561.486c-24.236-4.592-48.792-7.292-73.447-8.075v-88.228h87.333c-0.899 32.529-5.559 64.845-13.885 96.303v0zM394.455 465.183h87.333v88.228c-24.655 0.783-49.211 3.483-73.447 8.075-8.327-31.458-12.986-63.774-13.885-96.303v0zM516.896 223.109c23.189 9.304 45.641 36.425 62.142 77.081-20.534 3.654-41.299 5.866-62.142 6.618v-83.699zM419.645 595.084c20.534-3.654 41.299-5.866 62.142-6.618v83.681c-23.189-9.304-45.641-36.425-62.142-77.063zM516.896 672.148v-83.699c20.843 0.752 41.608 2.964 62.142 6.618-16.501 40.656-38.953 67.777-62.142 77.081zM604.228 430.074h-87.333v-88.228c24.655-0.783 49.211-3.483 73.447-8.075 8.327 31.458 12.986 63.774 13.885 96.303zM624.275 569.385c9.011-34.039 14.059-69.005 15.044-104.202h87.333c-3.45 45.443-20.504 88.794-48.941 124.407-17.179-8.302-35.061-15.063-53.435-20.205v0zM624.275 325.872c18.374-5.142 36.256-11.903 53.435-20.205 28.437 35.613 45.491 78.964 48.941 124.407h-87.333c-0.985-35.198-6.033-70.163-15.044-104.202zM583.444 235.748c5.091 2.036 10.1 4.254 15.026 6.653 1.088 0.527 2.177 1.018 3.265 1.562 5.266 2.651 10.375 5.53 15.395 8.584l2.932 1.755c4.997 3.148 9.871 6.483 14.623 10.006 0.93 0.685 1.861 1.369 2.774 2.071 4.681 3.593 9.251 7.373 13.71 11.34l1.229 1.123c-12.713 5.372-25.774 9.882-39.093 13.499-7.488-20.066-17.523-39.087-29.86-56.595zM359.364 430.074h-87.333c3.45-45.443 20.504-88.794 48.941-124.407 17.179 8.302 35.061 15.063 53.435 20.205-9.011 34.039-14.059 69.005-15.044 104.202v0zM481.787 223.109v83.699c-20.843-0.752-41.608-2.964-62.142-6.618 16.501-40.656 38.953-67.777 62.142-77.081zM346.286 278.862l1.229-1.123c4.447-3.967 9.017-7.747 13.71-11.34 0.913-0.702 1.755-1.387 2.774-2.071 4.763-3.511 9.637-6.846 14.623-10.006l2.932-1.755c5.021-3.054 10.164-5.933 15.395-8.584 1.088-0.544 2.177-1.036 3.265-1.562 4.927-2.411 9.936-4.628 15.026-6.653-12.332 17.515-22.361 36.541-29.842 56.613-13.326-3.622-26.392-8.138-39.111-13.517v0zM374.408 569.385c-18.374 5.142-36.256 11.903-53.435 20.205-28.437-35.613-45.491-78.964-48.941-124.407h87.333c0.985 35.198 6.033 70.163 15.044 104.202v0zM415.239 659.509c-5.091-2.036-10.1-4.254-15.026-6.653-1.088-0.527-2.177-1.018-3.265-1.562-5.266-2.651-10.357-5.53-15.378-8.566l-2.967-1.755c-4.985-3.125-9.854-6.454-14.605-9.988-0.93-0.685-1.861-1.369-2.774-2.071-4.681-3.604-9.251-7.385-13.71-11.34l-1.229-1.123c12.713-5.372 25.774-9.882 39.093-13.499 7.487 20.056 17.522 39.065 29.86 56.56v0z" />
<glyph unicode="&#xe91a;" glyph-name="Like" horiz-adv-x="1092" d="M900.519 536.456c-48.849 3.186-93.449 1.062-151.855-4.248-24.424-2.124-33.982 31.858-28.672 83.892 7.433 90.264 18.053 153.979 25.486 206.014 14.867 93.449-117.874 109.378-146.546 37.167-27.61-69.025-104.069-313.268-251.676-381.231-16.991-7.433-27.61-25.486-27.61-44.601 0-79.644 0-277.163-1.062-359.993 0-22.3 14.867-41.415 36.105-47.787 82.83-22.3 288.844-74.335 434.328-74.335 94.511 0 149.732 7.433 169.908 95.573 21.239 92.388 47.787 228.314 67.963 333.445 21.239 112.564-27.61 149.732-126.369 156.103zM243.187 500.351h-196.456c-12.743 0-23.362-10.619-23.362-23.362v-461.938c0-12.743 10.619-23.362 23.362-23.362h196.456c12.743 0 23.362 10.619 23.362 23.362v461.938c0 12.743-10.619 23.362-23.362 23.362zM144.427 67.085c-24.424 0-43.539 19.115-43.539 43.539s19.115 43.539 43.539 43.539c24.424 0 43.539-19.115 43.539-43.539s-19.115-43.539-43.539-43.539z" />
<glyph unicode="&#xe91b;" glyph-name="ListView" d="M31.772 959.327c-11.911 0-22.748-10.841-22.748-22.755 0-76.5 0-153.347 0-229.689 1.054-11.187 11.516-20.671 22.748-20.622h227.482c11.911 0 22.748 10.841 22.748 22.755v227.556c0 11.914-10.838 22.755-22.748 22.755h-227.482zM65.892 902.44h159.261v-159.313h-159.261v159.313zM416.359 902.438c-11.913-0.557-22.245-11.906-21.686-23.822s11.907-22.249 23.819-21.689h568.705c12.018-0.169 23.072 10.733 23.072 22.756s-11.054 22.925-23.072 22.755c-190.231 0-380.758 0-570.837 0zM416.359 788.661c-11.913-0.557-22.245-11.906-21.686-23.822s11.907-22.25 23.819-21.689h398.093c12.018-0.169 23.072 10.733 23.072 22.755s-11.054 22.926-23.072 22.756c-133.356 0-267.023 0-400.226 0zM31.772 595.238c-11.911 0-22.748-10.841-22.748-22.755 0-76.5 0-153.347 0-229.689 1.054-11.186 11.516-20.67 22.748-20.622h227.482c11.911 0 22.748 10.842 22.748 22.756v227.556c0 11.914-10.838 22.755-22.748 22.755h-227.482zM65.892 538.352h159.261v-159.313h-159.261v159.313zM416.359 538.35c-11.913-0.557-22.245-11.906-21.686-23.822s11.907-22.249 23.819-21.689h568.705c12.018-0.169 23.072 10.733 23.072 22.756s-11.054 22.925-23.072 22.755c-190.231 0-380.758 0-570.837 0zM416.359 424.571c-11.913-0.558-22.245-11.906-21.686-23.821 0.558-11.917 11.907-22.25 23.819-21.69h398.093c12.018-0.17 23.072 10.733 23.072 22.756s-11.054 22.926-23.072 22.755c-133.356 0-267.023 0-400.226 0zM31.772 231.15c-11.911 0-22.748-10.841-22.748-22.756 0-76.499 0-153.346 0-229.689 1.054-11.186 11.516-20.67 22.748-20.622h227.482c11.911 0 22.748 10.842 22.748 22.756v227.555c0 11.915-10.838 22.756-22.748 22.756h-227.482zM65.892 174.262h159.261v-159.312h-159.261v159.312zM416.359 174.26c-11.913-0.557-22.245-11.906-21.686-23.821 0.558-11.917 11.907-22.25 23.819-21.689h568.705c12.018-0.171 23.072 10.733 23.072 22.755s-11.054 22.926-23.072 22.755c-190.231 0-380.758 0-570.837 0zM416.359 60.483c-11.913-0.558-22.245-11.906-21.686-23.821 0.558-11.917 11.907-22.25 23.819-21.69h398.093c12.018-0.17 23.072 10.733 23.072 22.756s-11.054 22.926-23.072 22.755c-133.356 0-267.023 0-400.226 0z" />
<glyph unicode="&#xe91c;" glyph-name="Love" horiz-adv-x="1161" d="M948.549 274.975c-128.246-112.863-299.438-326.167-377.067-339.081-1.789-0.247-3.835-1.234-5.368-1.234-0.341 0-0.767 0.165-1.108 0.165s-0.767-0.165-1.108-0.165c-0.17 0-0.341 0.165-0.511 0.165s-0.426-0.165-0.596-0.165c-0.341 0-0.682 0.165-1.023 0.165s-0.767-0.165-1.108-0.165c-1.534 0-3.664 0.987-5.368 1.234-77.629 12.915-248.822 226.219-377.067 339.081-406.636 357.919 14.998 894.674 348.947 518.411 2.216 0.74 4.687-1.563 7.158-4.854v4.525c9.714-13.080 19.429-27.146 29.058-41.789 9.629 14.643 19.258 28.709 29.058 41.789v-4.525c2.471 3.29 4.942 5.594 7.158 4.854 333.95 376.263 755.584-160.492 348.947-518.411z" />
<glyph unicode="&#xe91d;" glyph-name="Maths" d="M516.733 939.148v-309.588c-91.752-5.737-165.127-79.032-170.87-170.684h-309.211c6.174 262.263 217.515 474.263 480.081 480.272v0zM539.611 939.148c262.566-6.010 473.907-218.010 480.081-480.272h-309.211c-5.743 91.653-79.118 164.948-170.87 170.684v309.588zM286.523 802.030c-5.619-0.703-10.229-6.131-10.009-11.784v-91.412c-31.125 0-62.706 0-93.657 0-5.99-0.559-10.931-6.514-10.369-12.498s6.523-10.917 12.514-10.355h91.512v-91.412c-0.080-6.037 5.395-11.589 11.439-11.589s11.524 5.553 11.439 11.589v91.412h91.512c6.043-0.080 11.6 5.39 11.6 11.427s-5.557 11.511-11.6 11.426h-91.512v91.412c0.258 6.607-6.302 12.614-12.869 11.784v0zM652.392 685.8c0.842-5.983 7.058-10.661 13.048-9.819h205.902c6.043-0.080 11.6 5.39 11.6 11.427s-5.557 11.511-11.6 11.426c-69.281 0-138.931 0-208.047 0-8.005-0.551-10.86-7.095-10.903-13.033zM528.172 607.422c88.582 0 160.146-71.487 160.146-159.972s-71.564-159.971-160.146-159.971c-88.582 0-160.146 71.487-160.146 159.971s71.564 159.972 160.146 159.972v0zM435.051 480.122c0.841-5.983 7.058-10.661 13.048-9.819h160.146c6.043-0.114 11.6 5.389 11.6 11.426s-5.557 11.511-11.6 11.427c-54.022 0-108.437 0-162.291 0-7.916-1.175-11.664-5.222-10.903-13.033v0zM36.652 436.023h309.211c5.743-91.651 79.118-164.946 170.87-170.683v-309.231c-262.803 5.986-474.274 217.352-480.081 479.914zM710.481 436.023h309.211c-5.807-262.562-217.278-473.928-480.081-479.914v309.231c91.752 5.737 165.127 79.032 170.87 170.683zM435.077 411.567c0.842-5.974 7.039-10.65 13.022-9.823h160.146c6.044-0.114 11.604 5.388 11.604 11.426s-5.56 11.513-11.604 11.427c-54.022 0-108.437 0-162.291 0-7.899-1.178-10.929-6.65-10.877-13.030v0zM768.391 321.758c-18.953 0-34.317-15.348-34.317-34.279s15.364-34.279 34.317-34.279c18.953 0 34.317 15.347 34.317 34.279s-15.364 34.279-34.317 34.279zM207.922 289.176c-4.501-4.313-5.527-12.653-0.757-17.052l64.702-64.632-64.702-64.632c-4.982-4.010-5.436-12.459-0.912-16.979s12.983-4.066 16.997 0.915l64.702 64.632 64.702-64.631c4.015-4.977 12.473-5.43 16.997-0.915 4.525 4.52 4.071 12.968-0.912 16.979l-64.702 64.632 64.702 64.631c5.252 7.548 3.995 12.116 0.47 16.609-5.622 5.036-11.207 3.834-16.556-0.183l-64.701-64.633-64.702 64.632c-7.139 5.496-12.284 3.499-15.329 0.629l0.001-0.002zM652.419 205.89c0.841-5.975 7.039-10.65 13.021-9.824h205.902c6.044-0.114 11.604 5.389 11.604 11.426 0 6.039-5.56 11.513-11.604 11.427-69.281 0-138.931 0-208.047 0-7.899-1.179-11.376-6.651-10.876-13.030v0zM768.391 161.787c-18.953 0-34.317-15.348-34.317-34.279 0-18.933 15.364-34.279 34.317-34.279s34.317 15.346 34.317 34.279c0 18.931-15.364 34.279-34.317 34.279z" />
<glyph unicode="&#xe91e;" glyph-name="Mylearning" horiz-adv-x="1408" d="M694.45 861.741c0-28.553 0-57.106 0-85.505 0-67.91 0-135.974 0-203.884 0-82.727 0-165.453 0-248.026 0-71.305 0-142.457 0-213.762 0-23.46 0-47.074 0-70.534 0-11.113-0.617-22.225 0-33.338 0-0.463 0-0.926 0-1.389 9.723 7.408 19.601 14.817 29.325 22.379-46.302 10.804-92.605 21.453-138.907 32.257-104.952 24.386-213.145 30.868-319.949 16.823-67.601-8.952-133.968-25.003-197.711-49.080 9.723-7.408 19.601-14.817 29.325-22.379 0 28.553 0 57.106 0 85.505 0 68.373 0 136.9 0 205.273 0 82.418 0 164.836 0 247.408 0 71.151 0 142.302 0 213.608 0 23.614 0 47.228 0 70.688 0 10.804 0.617 21.916 0 32.72 0 0.463 0 0.926 0 1.389-5.711-7.408-11.267-14.817-16.977-22.379 110.817 41.672 226.264 59.884 344.18 53.711 50.161-2.624 96.772-9.415 145.852-20.836 23.768-5.556 47.537-11.113 71.46-16.514 23.46-5.402 47.074-10.958 70.534-16.36 11.73-2.778 25.621 3.704 28.553 16.206 2.624 11.884-3.55 25.621-16.206 28.553-46.148 10.65-92.45 21.453-138.598 32.103-104.489 24.232-212.373 31.023-318.868 17.132-68.064-8.952-134.74-25.003-199.1-49.235-9.723-3.704-16.977-11.421-16.977-22.379 0-28.244 0-56.334 0-84.579 0-68.219 0-136.592 0-204.81 0-82.418 0-164.836 0-247.254 0-71.305 0-142.611 0-213.916 0-34.727-0.926-69.608 0-104.334 0-0.463 0-0.926 0-1.389 0-13.891 14.971-27.781 29.325-22.379 110.354 41.672 225.338 59.73 342.791 53.865 50.469-2.624 97.543-9.415 147.087-20.836 23.923-5.556 47.691-11.113 71.614-16.669 23.46-5.402 47.074-10.958 70.534-16.36 14.508-3.396 29.325 6.791 29.325 22.379 0 28.553 0 57.106 0 85.505 0 67.91 0 135.974 0 203.884 0 82.727 0 165.453 0 248.026 0 71.305 0 142.457 0 213.762 0 34.572 0.926 69.299 0 103.871 0 0.463 0 0.926 0 1.389 0 12.039-10.65 23.768-23.151 23.151-12.81-0.772-23.46-10.495-23.46-23.46zM1338.823 861.741c0-28.553 0-57.106 0-85.505 0-67.91 0-135.974 0-203.884 0-82.727 0-165.453 0-248.026 0-71.305 0-142.457 0-213.762 0-23.46 0-47.074 0-70.534 0-11.113-0.617-22.225 0-33.338 0-0.463 0-0.926 0-1.389 9.723 7.408 19.601 14.817 29.325 22.379-112.206 42.444-233.826 61.428-353.749 55.563-53.865-2.624-107.576-10.341-160.206-22.379-23.614-5.402-47.074-10.958-70.688-16.36-24.077-5.556-48-11.113-72.077-16.669 9.723-7.408 19.601-14.817 29.325-22.379 0 28.553 0 57.106 0 85.505 0 67.91 0 135.974 0 203.884 0 82.727 0 165.453 0 248.026 0 71.305 0 142.457 0 213.762 0 23.46 0 47.074 0 70.534 0 11.113 0.617 22.225 0 33.338 0 0.463 0 0.926 0 1.389-5.711-7.408-11.267-14.817-16.977-22.379 45.994 10.65 91.987 21.299 137.981 31.949 100.013 23.151 202.804 29.325 305.904 15.743 29.17-3.859 63.125-10.495 93.531-18.058 32.103-8.026 63.743-18.058 94.611-29.633 11.421-4.322 25.929 4.785 28.553 16.206 2.932 13.119-4.013 23.923-16.206 28.553-112.206 42.444-233.826 61.428-353.749 55.563-53.865-2.624-107.576-10.341-160.206-22.379-23.614-5.402-47.074-10.958-70.688-16.36-24.077-5.556-48-11.113-72.077-16.669-9.878-2.315-16.977-12.502-16.977-22.379 0-28.553 0-57.106 0-85.505 0-67.91 0-135.974 0-203.884 0-82.727 0-165.453 0-248.026 0-71.305 0-142.457 0-213.762 0-34.572-0.926-69.299 0-103.871 0-0.463 0-0.926 0-1.389 0-15.588 14.817-25.775 29.325-22.379 45.994 10.65 91.987 21.299 137.981 31.949 100.013 23.151 202.804 29.325 305.904 15.743 29.17-3.859 63.125-10.495 93.531-18.058 32.103-8.026 63.743-18.058 94.611-29.633 14.354-5.402 29.325 8.489 29.325 22.379 0 28.553 0 57.106 0 85.505 0 67.91 0 135.974 0 203.884 0 82.727 0 165.453 0 248.026 0 71.305 0 142.457 0 213.762 0 34.572 0.926 69.299 0 103.871 0 0.463 0 0.926 0 1.389 0 12.039-10.65 23.768-23.151 23.151-12.502-0.772-23.151-10.495-23.151-23.46zM227.569 646.59c37.814 0 75.473 0 113.286 0 60.193 0 120.54 0 180.733 0 13.891 0 27.781 0 41.672 0 12.039 0 23.768 10.65 23.151 23.151s-10.186 23.151-23.151 23.151c-37.814 0-75.473 0-113.286 0-60.193 0-120.54 0-180.733 0-13.891 0-27.781 0-41.672 0-12.039 0-23.768-10.65-23.151-23.151s10.186-23.151 23.151-23.151v0zM227.569 438.23c37.814 0 75.473 0 113.286 0 60.193 0 120.54 0 180.733 0 13.891 0 27.781 0 41.672 0 12.039 0 23.768 10.65 23.151 23.151s-10.186 23.151-23.151 23.151c-37.814 0-75.473 0-113.286 0-60.193 0-120.54 0-180.733 0-13.891 0-27.781 0-41.672 0-12.039 0-23.768-10.65-23.151-23.151s10.186-23.151 23.151-23.151v0zM227.569 229.87c37.814 0 75.473 0 113.286 0 60.193 0 120.54 0 180.733 0 13.891 0 27.781 0 41.672 0 12.039 0 23.768 10.65 23.151 23.151s-10.186 23.151-23.151 23.151c-37.814 0-75.473 0-113.286 0-60.193 0-120.54 0-180.733 0-13.891 0-27.781 0-41.672 0-12.039 0-23.768-10.65-23.151-23.151s10.186-23.151 23.151-23.151v0zM871.942 646.59c37.814 0 75.473 0 113.286 0 60.193 0 120.54 0 180.733 0 13.891 0 27.781 0 41.672 0 12.039 0 23.768 10.65 23.151 23.151s-10.186 23.151-23.151 23.151c-37.814 0-75.473 0-113.286 0-60.193 0-120.54 0-180.733 0-13.891 0-27.781 0-41.672 0-12.039 0-23.768-10.65-23.151-23.151s10.186-23.151 23.151-23.151v0zM871.942 438.23c37.814 0 75.473 0 113.286 0 60.193 0 120.54 0 180.733 0 13.891 0 27.781 0 41.672 0 12.039 0 23.768 10.65 23.151 23.151s-10.186 23.151-23.151 23.151c-37.814 0-75.473 0-113.286 0-60.193 0-120.54 0-180.733 0-13.891 0-27.781 0-41.672 0-12.039 0-23.768-10.65-23.151-23.151s10.186-23.151 23.151-23.151v0zM871.942 229.87c37.814 0 75.473 0 113.286 0 60.193 0 120.54 0 180.733 0 13.891 0 27.781 0 41.672 0 12.039 0 23.768 10.65 23.151 23.151s-10.186 23.151-23.151 23.151c-37.814 0-75.473 0-113.286 0-60.193 0-120.54 0-180.733 0-13.891 0-27.781 0-41.672 0-12.039 0-23.768-10.65-23.151-23.151s10.186-23.151 23.151-23.151v0z" />
<glyph unicode="&#xe91f;" glyph-name="PDF" horiz-adv-x="833" d="M656.539 295.335c-12.19-3.594-30.078-4.001-49.269-1.219-20.587 2.99-41.591 9.283-62.23 18.555 36.809 5.355 65.366 3.709 89.787-4.949 5.793-2.053 15.294-7.533 21.712-12.388zM451.17 329.102c-1.5-0.406-2.969-0.792-4.438-1.198-9.908-2.698-19.545-5.324-28.828-7.668l-12.523-3.178c-25.192-6.376-50.946-12.888-76.378-20.639 9.668 23.316 18.649 46.883 27.442 69.929 6.512 17.055 13.159 34.485 20.035 51.686 3.49-5.761 7.126-11.523 10.919-17.305 17.253-26.286 38.944-50.592 63.772-71.627zM387.096 591.992c1.636-28.765-4.574-56.437-13.679-82.983-11.21 32.829-16.44 69.075-2.417 98.34 3.594 7.501 6.543 11.512 8.449 13.607 2.948-4.563 6.835-14.753 7.647-28.963zM255.594 227.594c-6.303-11.273-12.731-21.827-19.326-31.787-15.909-23.973-41.924-49.644-55.291-49.644-1.313 0-2.907 0.208-5.23 2.667-1.5 1.573-1.74 2.698-1.667 4.23 0.448 8.814 12.127 24.515 29.047 39.069 15.357 13.211 32.714 24.942 52.468 35.464zM699.109 294.095c-2.042 29.36-51.467 48.196-51.957 48.373-19.108 6.772-39.861 10.064-63.449 10.064-25.254 0-52.478-3.657-87.442-11.825-31.11 22.056-57.989 49.665-78.066 80.233-8.866 13.503-16.836 26.984-23.785 40.153 16.961 40.559 32.235 84.171 29.464 133.013-2.24 39.163-19.899 65.47-43.914 65.47-16.472 0-30.662-12.2-42.195-36.298-20.577-42.945-15.169-97.892 16.065-163.456-11.252-26.421-21.702-53.811-31.818-80.337-12.586-32.975-25.557-66.991-40.174-99.351-40.997-16.222-74.669-35.892-102.737-60.042-18.389-15.794-40.549-39.934-41.82-65.136-0.615-11.866 3.449-22.754 11.721-31.474 8.783-9.262 19.826-14.138 31.964-14.148 40.090 0 78.67 55.083 85.984 66.126 14.732 22.202 28.515 46.967 42.028 75.534 34.027 12.294 70.294 21.472 105.435 30.349l12.586 3.198c9.46 2.407 19.295 5.063 29.38 7.824 10.679 2.886 21.66 5.876 32.818 8.72 36.090-22.952 74.899-37.923 112.749-43.414 31.881-4.636 60.198-1.948 79.358 8.043 17.253 8.981 18.212 22.837 17.805 28.38zM776.748 41.634c0-53.77-47.394-57.083-56.958-57.198h-611.43c-53.572 0-56.802 47.717-56.906 57.198v812.299c0 53.822 47.477 57.083 56.906 57.198l413.26-0.219v-161.185c0-32.349 19.556-93.589 93.621-93.589h160.132l1.375-1.375v-613.129zM738.783 692.884h-123.532c-53.562 0-56.802 47.456-56.875 56.843v124.303l180.407-181.146zM813.484 41.634v628.298l-255.107 256.17v1.188h-1.219l-20.483 20.587h-428.315c-32.391 0-93.641-19.639-93.641-93.944v-812.309c0-32.485 19.576-93.933 93.641-93.933h611.493c32.381 0.010 93.631 19.639 93.631 93.943z" />
<glyph unicode="&#xe920;" glyph-name="Science" d="M285.784 447.628c8.696-12.099 18.148-23.82 27.601-35.919-0.378 11.721-0.756 23.82-0.756 35.919s0.378 23.82 0.756 35.919c-9.452-12.099-18.905-23.82-27.601-35.919zM398.455 782.996c37.431-17.77 77.131-40.834 117.587-69.569 40.456 28.735 80.156 51.799 117.587 69.569-31.382 75.618-72.594 122.88-117.587 122.88s-86.205-47.262-117.587-122.88zM357.999 640.077c24.198 3.403 49.152 6.049 74.862 7.562 19.283 17.014 38.944 32.894 58.226 47.64-35.541 24.576-70.325 44.993-103.219 60.873-11.721-34.406-21.929-73.35-29.869-116.074zM192.017 771.654c-31.76-31.76-27.601-94.523 3.781-170.142 38.944 13.989 83.558 25.71 132.332 34.028 8.318 48.774 19.661 93.011 34.028 131.954-40.078 16.636-76.753 26.088-107 26.088-26.466 0-48.396-6.806-63.141-21.929zM57.794 447.628c0-44.993 47.262-86.205 123.258-117.587 17.392 37.431 40.456 77.131 69.191 117.587-28.735 40.456-51.799 80.156-69.569 117.587-75.618-31.382-122.88-72.594-122.88-117.587zM192.017 123.603c31.76-31.76 94.523-27.601 170.142 3.781-13.989 38.944-25.71 83.558-34.028 132.332-48.774 8.318-93.389 20.039-132.332 34.028-31.382-75.997-35.541-138.76-3.781-170.142zM974.668 447.628c0 44.993-47.262 86.205-123.258 117.587-17.77-37.431-40.834-77.131-69.569-117.587 28.735-40.456 51.799-80.156 69.569-117.587 75.618 31.382 123.258 72.594 123.258 117.587zM323.593 605.671c-42.346-7.94-81.668-17.77-116.074-30.247 15.88-32.894 36.297-67.679 60.873-103.219 14.746 19.283 30.625 38.944 47.64 58.604 1.512 25.71 4.159 50.664 7.562 74.862zM824.565 575.424c-34.406 12.099-73.35 22.307-116.074 30.247 3.403-24.198 6.049-49.152 7.562-74.862 17.014-19.661 32.894-38.944 47.64-58.604 24.576 35.541 44.993 70.325 60.873 103.219zM669.925 127.384c75.618-31.382 138.382-35.541 170.142-3.781s27.601 94.523-3.781 170.142c-38.944-13.989-83.558-25.71-132.332-34.028-8.318-48.774-19.661-93.389-34.028-132.332zM674.084 255.179c-24.198-3.403-49.152-6.049-74.862-7.562-19.661-17.014-38.944-32.894-58.604-47.64 35.541-24.576 70.325-44.993 103.597-60.873 11.721 34.406 21.929 73.35 29.869 116.074zM323.593 289.586c-3.403 24.198-6.049 49.152-7.562 74.862-17.014 19.661-32.894 38.944-47.64 58.226-24.576-35.541-44.993-70.325-60.873-103.219 34.406-11.721 73.35-21.929 116.074-29.869zM491.844 199.978c-19.661 14.746-38.944 30.625-58.604 47.64-25.71 1.89-50.664 4.159-74.862 7.562 7.94-42.346 17.77-81.668 30.247-116.074 32.516 15.88 67.3 36.297 103.219 60.873zM746.3 447.628c-8.696 12.099-18.148 23.82-27.601 35.919 0.378-11.721 0.756-23.82 0.756-35.919s-0.378-23.82-0.756-35.919c9.452 12.099 18.905 23.82 27.601 35.919zM824.565 319.833c-15.88 32.894-36.297 67.679-60.873 103.219-14.746-19.283-30.625-38.944-47.64-58.604-1.89-25.71-4.159-50.664-7.562-74.862 42.724 7.94 81.668 18.148 116.074 30.247zM347.413 329.664c1.512-15.502 3.403-30.247 5.671-44.993 14.746-2.269 30.247-4.159 45.749-5.671-8.696 8.318-17.77 16.258-26.466 24.954s-16.636 17.392-24.954 25.71zM633.628 112.261c-37.431 17.77-77.131 41.212-117.587 69.947-40.456-28.735-80.156-52.177-117.587-69.947 31.382-75.997 72.594-123.258 117.587-123.258s86.205 47.64 117.587 123.258zM551.961 244.971c-11.721-0.378-23.82-0.756-35.919-0.756s-23.82 0.378-35.919 0.756c12.099-9.83 23.82-18.905 35.919-27.601 12.099 8.696 23.82 18.148 35.919 27.601zM341.363 447.628c0-24.198 1.134-48.018 2.269-71.459 15.502-17.77 31.76-35.163 48.774-52.177s34.784-33.272 52.177-48.774c23.442-1.512 47.262-2.269 71.459-2.269s48.018 1.134 71.459 2.269c17.392 15.502 35.163 31.76 52.177 48.774s33.272 34.784 48.774 52.177c1.512 23.442 2.269 47.262 2.269 71.459s-1.134 48.018-2.269 71.459c-15.502 17.77-31.76 35.163-48.774 52.177s-34.406 33.272-51.799 48.774c-23.442 1.512-47.262 2.647-71.838 2.647s-48.396-1.134-71.838-2.647c-17.392-15.502-34.784-31.76-51.799-48.774s-33.272-34.784-48.774-52.177c-1.512-23.442-2.269-47.262-2.269-71.459zM516.042 540.639c51.421 0 93.011-41.59 93.011-93.011s-41.59-93.011-93.011-93.011c-51.421 0-93.011 41.59-93.011 93.011s41.59 93.011 93.011 93.011zM516.042 382.975c35.541 0 64.654 29.113 64.654 64.654s-29.113 64.654-64.654 64.654c-35.541 0-64.654-29.113-64.654-64.654s29.113-64.654 64.654-64.654zM353.084 610.586c-2.269-14.746-4.159-29.491-5.671-44.993 8.318 8.696 16.258 17.392 24.954 25.71s17.392 16.636 25.71 24.954c-15.124-1.89-30.247-3.781-44.993-5.671zM776.925 793.583c-29.869 0-66.544-9.83-106.622-26.088 13.989-38.944 25.71-83.18 34.028-131.954 48.774-8.318 93.389-20.039 132.332-34.028 31.382 75.618 35.541 138.382 3.781 170.142-15.124 15.124-37.053 21.929-63.52 21.929zM633.25 278.999c15.502 1.512 30.625 3.403 45.749 5.671 2.269 14.746 4.159 29.869 5.671 44.993-8.318-8.696-16.258-17.392-24.954-25.71-8.696-8.696-17.77-16.636-26.466-24.954zM684.671 565.593c-1.512 15.124-3.403 30.247-5.671 44.993-14.746 2.269-29.491 4.159-44.993 5.671 8.696-8.318 17.392-16.258 25.71-24.954 8.696-8.696 16.636-17.014 24.954-25.71zM551.582 650.286c-11.721 9.452-23.442 18.527-35.541 27.223-11.721-8.696-23.442-17.77-35.541-27.223 11.721 0.378 23.442 0.756 35.541 0.756s23.82-0.756 35.541-0.756zM540.618 695.279c19.283-14.746 38.944-30.625 58.226-47.64 25.71-1.89 50.664-4.159 74.862-7.562-7.94 42.346-17.77 81.668-30.247 116.074-32.516-15.88-67.3-36.297-102.841-60.873z" />
<glyph unicode="&#xe921;" glyph-name="TileView" d="M478.938 403.338v-457.143h-457.143v457.143h457.143zM997.033 403.338v-457.143h-457.143v457.143h457.143zM417.986 342.386h-335.238v-335.238h335.238v335.238zM936.081 342.386h-335.238v-335.238h335.238v335.238zM478.938 921.433v-457.143h-457.143v457.143h457.143zM997.033 921.433v-457.143h-457.143v457.143h457.143zM417.986 860.481h-335.238v-335.238h335.238v335.238zM936.081 860.481h-335.238v-335.238h335.238v335.238z" />
<glyph unicode="&#xe922;" horiz-adv-x="960" d="M388.944 276.528h228.195c99.286 65.7 148.929 160.612 148.929 284.735 0 186.184-83.106 339.702-258.511 339.702s-271.375-150.932-271.375-337.117l152.763-287.32z" />
<glyph unicode="&#xe923;" horiz-adv-x="960" d="M636.963 52.135h-274.383c-11.657 0-21.106 9.451-21.106 21.106v69.999c0 94.7-34.184 186.789-96.254 259.307-52.259 61.052-81.040 138.992-81.040 219.458 0 89.681 35.311 174.353 99.432 238.42 64.723 64.666 150.372 100.013 241.018 99.274 89.626-0.716 173.775-36.159 236.942-99.804 63.205-63.68 98.012-148.163 98.012-237.888 0-81.046-29.148-159.41-82.074-220.661-64.125-74.214-99.441-167.614-99.441-262.992v-65.113c0-11.655-9.451-21.106-21.106-21.106zM383.686 94.348h232.17v44.007c0 105.511 38.964 208.713 109.713 290.593 46.303 53.583 71.802 122.147 71.802 193.060 0 161.639-131.474 294.189-293.077 295.481l-2.36 0.008c-78.334 0-152.375-30.874-208.485-86.933-56.141-56.092-87.057-130.159-87.057-208.559 0-70.407 25.18-138.597 70.896-192.007 68.611-80.16 106.397-181.998 106.397-286.758v-48.893z" />
<glyph unicode="&#xe924;" horiz-adv-x="960" d="M573.644-32.29h-147.745c-11.657 0-21.106 9.451-21.106 21.106v84.426c0 11.655 9.449 21.106 21.106 21.106h147.745c11.655 0 21.106-9.451 21.106-21.106v-84.426c0-11.655-9.451-21.106-21.106-21.106zM447.005 9.922h105.532v42.213h-105.532v-42.213z" />
<glyph unicode="&#xe925;" horiz-adv-x="960" d="M700.282 220.986h-401.021c-11.657 0-21.106 9.451-21.106 21.106s9.449 21.106 21.106 21.106h401.021c11.655 0 21.106-9.451 21.106-21.106s-9.451-21.106-21.106-21.106z" />
<glyph unicode="&#xe926;" horiz-adv-x="960" d="M700.282 136.561h-401.021c-11.657 0-21.106 9.451-21.106 21.106s9.449 21.106 21.106 21.106h401.021c11.655 0 21.106-9.451 21.106-21.106s-9.451-21.106-21.106-21.106z" />
<glyph unicode="&#xe927;" horiz-adv-x="960" d="M501.882 220.986c-11.657 0-21.106 9.451-21.106 21.106v696.511c0 11.657 9.449 21.106 21.106 21.106 11.655 0 21.106-9.449 21.106-21.106v-696.511c0-11.655-9.451-21.106-21.106-21.106z" />
<glyph unicode="&#xe928;" horiz-adv-x="960" d="M636.984 727.537c-6.9 0-13.66 3.377-17.706 9.589-6.364 9.768-3.603 22.843 6.165 29.205 61.922 40.334 54.571 81.572 54.227 83.309l0.091-0.397 41.041 9.871c0.688-2.86 15.838-70.73-72.321-128.154-3.554-2.317-7.548-3.423-11.497-3.423z" />
<glyph unicode="&#xe929;" horiz-adv-x="960" d="M510.318 516.121c-2.567 0-5.173 0.471-7.706 1.465-10.851 4.259-16.193 16.509-11.931 27.358 22.21 56.58 61.265 80.219 90.116 90.088 30.649 10.486 55.869 7.915 58.642 7.586 11.575-1.368 19.853-11.862 18.485-23.437-1.363-11.541-11.801-19.802-23.327-18.498-3.309 0.34-74.067 6.68-104.624-71.164-3.267-8.318-11.229-13.398-19.654-13.398z" />
<glyph unicode="&#xe92a;" horiz-adv-x="960" d="M726.032 409.631c-76.291 0-125.393 70.592-127.611 73.843-6.568 9.631-4.090 22.761 5.54 29.329 9.616 6.556 22.723 4.097 29.302-5.498 0.709-1.022 45.239-64.045 105.92-54.412 11.511 1.843 22.326-6.022 24.156-17.533s-6.022-22.328-17.533-24.156c-6.771-1.074-13.375-1.572-19.775-1.572z" />
<glyph unicode="&#xe92b;" horiz-adv-x="960" d="M794.001 557.424c-28.848 0-54.252 16.97-72.703 49.045-14.614 25.404-20.334 52.308-20.57 53.439-2.381 11.41 4.939 22.592 16.351 24.973 11.402 2.385 22.573-4.926 24.967-16.324 0.308-1.425 17.105-76.956 59.455-68.102 11.429 2.377 22.592-4.937 24.975-16.347s-4.937-22.592-16.347-24.975c-5.475-1.144-10.861-1.71-16.127-1.71z" />
<glyph unicode="&#xe92c;" horiz-adv-x="960" d="M658.065 664.214c-8.909 0-17.189 5.684-20.079 14.616-24.044 74.318-59.17 70.352-60.653 70.145 0.433 0.061 0.661 0.125 0.661 0.125l-8.698 41.307c2.944 0.618 72.473 13.88 108.856-98.584 3.588-11.089-2.495-22.991-13.586-26.579-2.157-0.697-4.348-1.028-6.501-1.030z" />
<glyph unicode="&#xe92d;" horiz-adv-x="960" d="M879.686 178.774c-40.733 0-73.872 33.139-73.872 73.872s33.139 73.872 73.872 73.872c40.733 0 73.872-33.139 73.872-73.872s-33.139-73.872-73.872-73.872zM879.686 284.305c-17.457 0-31.66-14.202-31.66-31.66s14.202-31.66 31.66-31.66c17.457 0 31.66 14.202 31.66 31.66s-14.202 31.66-31.66 31.66z" />
<glyph unicode="&#xe92e;" horiz-adv-x="960" d="M162.069 263.199c-29.095 0-52.766 23.671-52.766 52.766s23.671 52.766 52.766 52.766c29.095 0 52.766-23.671 52.766-52.766s-23.671-52.766-52.766-52.766zM162.069 326.518c-5.819 0-10.553-4.734-10.553-10.553s4.734-10.553 10.553-10.553c5.819 0 10.553 4.734 10.553 10.553s-4.734 10.553-10.553 10.553z" />
<glyph unicode="&#xe92f;" horiz-adv-x="960" d="M77.644 727.539c-29.095 0-52.766 23.671-52.766 52.766s23.671 52.766 52.766 52.766c29.095 0 52.766-23.671 52.766-52.766s-23.671-52.766-52.766-52.766zM77.644 790.859c-5.819 0-10.553-4.734-10.553-10.553s4.734-10.553 10.553-10.553c5.819 0 10.553 4.734 10.553 10.553s-4.734 10.553-10.553 10.553z" />
<glyph unicode="&#xe930;" horiz-adv-x="960" d="M573.644 453.157c-5.403 0-10.802 2.062-14.924 6.182-8.242 8.242-8.242 21.607 0 29.851l63.319 63.319c8.244 8.24 21.604 8.24 29.851 0 8.242-8.242 8.242-21.607 0-29.851l-63.319-63.319c-4.124-4.12-9.523-6.182-14.926-6.182z" />
<glyph unicode="&#xe931;" glyph-name="Topics" horiz-adv-x="780" d="M500.426 921.433c4.061 0 7.844-1.193 11.019-3.248 0.156-0.134 0.356-0.268 0.553-0.405 0.837-0.551 1.588-1.16 2.293-1.818 0.141-0.171 0.311-0.335 0.478-0.502l244.312-244.288c0.645-0.69 1.242-1.425 1.787-2.2l-2.289 2.678c1.045-1.045 1.952-2.176 2.721-3.37 2.059-3.13 3.252-6.913 3.252-10.974v-650.159c0-33.605-27.347-60.952-60.952-60.952h-609.524c-33.605 0-60.952 27.347-60.952 60.952v853.333c0 33.605 27.347 60.952 60.952 60.952h406.349zM480.108 880.798h-386.032c-11.215 0-20.317-9.143-20.317-20.318v-853.333c0-11.175 9.102-20.318 20.317-20.318h609.524c11.215 0 20.317 9.143 20.317 20.318v629.841h-182.857c-33.605 0-60.952 27.347-60.952 60.952v182.857zM581.696 230.639c11.215 0 20.317-9.102 20.317-20.317s-9.102-20.318-20.317-20.318h-365.714c-11.215 0-20.317 9.102-20.317 20.318s9.102 20.317 20.317 20.317h365.714zM581.696 393.179c11.215 0 20.317-9.102 20.317-20.318s-9.102-20.318-20.317-20.318h-365.714c-11.215 0-20.317 9.102-20.317 20.318s9.102 20.318 20.317 20.318h365.714zM581.696 555.719c11.215 0 20.317-9.102 20.317-20.318s-9.102-20.317-20.317-20.317h-365.714c-11.215 0-20.317 9.102-20.317 20.317s9.102 20.318 20.317 20.318h365.714zM520.743 852.045v-154.104c0-11.175 9.102-20.318 20.317-20.318h154.104l-174.421 174.421z" />
<glyph unicode="&#xe932;" d="M173.104 939.148h655.36c90.486 0 163.84-73.354 163.84-163.84v-655.36c0-90.486-73.354-163.84-163.84-163.84h-655.36c-90.486 0-163.84 73.354-163.84 163.84v655.36c0 90.486 73.354 163.84 163.84 163.84z" />
<glyph unicode="&#xe933;" d="M761.378 601.708c8.486-189.114-132.528-399.966-382.173-399.966-75.926 0-146.602 22.27-206.102 60.418 71.32-8.406 142.528 11.369 199.049 55.684-58.824 1.079-108.486 39.952-125.587 93.365 21.063-4.026 41.787-2.85 60.708 2.287-64.67 13.011-109.291 71.256-107.842 133.542 18.132-10.064 38.873-16.119 60.918-16.795-59.887 40-76.844 119.066-41.61 179.5 66.296-81.352 165.362-134.879 277.117-140.499-19.597 84.122 44.203 165.104 130.982 165.104 38.679 0 73.623-16.312 98.132-42.448 30.628 6.023 59.404 17.214 85.378 32.625-10.032-31.401-31.353-57.761-59.114-74.38 27.198 3.237 53.108 10.467 77.23 21.159-18.019-26.973-40.821-50.644-67.085-69.597z" />
<glyph unicode="&#xe934;" glyph-name="Upload" horiz-adv-x="916" d="M477.271 1.163v862.316c0 29.765-23.448 53.895-52.374 53.895s-52.374-24.129-52.374-53.895v-862.316c0-29.765 23.448-53.895 52.374-53.895s52.374 24.129 52.374 53.895zM424.431 781.634l327.69-384.832c19.063-22.387 52.152-24.633 73.907-5.016s23.937 53.667 4.875 76.053l-367.137 431.158c-20.883 24.525-57.981 24.498-78.83-0.057l-366.092-431.158c-19.032-22.414-16.803-56.462 4.979-76.046s54.868-17.291 73.9 5.124l326.709 384.775z" />
<glyph unicode="&#xe935;" glyph-name="View" d="M522.072 927.604c271.026 0 491.52-220.5 491.52-491.52s-220.494-491.52-491.52-491.52c-271.026 0-491.52 220.5-491.52 491.52s220.494 491.52 491.52 491.52zM522.072 889.486c-250.005 0-453.402-203.397-453.402-453.402s203.397-453.402 453.402-453.402c250.005 0 453.402 203.397 453.402 453.402s-203.397 453.402-453.402 453.402zM523.19 659.644c243.352 0 358.579-194.338 362.878-202.077 1.72-2.58 2.58-5.16 2.58-8.599v0-4.3c0-2.58 0-5.159-1.72-7.739-4.3-8.599-110.927-202.937-363.738-202.937-243.352 0-357.719 193.478-362.878 202.077-1.72 2.58-2.58 5.16-2.58 8.599v0 4.3c0 2.58 0 5.159 1.72 7.739 0.083 0.165 0.203 0.399 0.362 0.7l1.412 2.571c15.315 27.106 123.738 199.666 361.964 199.666zM523.19 625.248c-209.816 0-309.564-145.323-329.342-178.859 21.498-31.816 129.845-178.86 329.342-178.86 209.816 0 309.564 145.324 329.342 178.86-21.498 31.816-129.845 178.859-329.342 178.859zM523.19 592.572c80.831 0 146.183-65.352 146.183-146.183s-65.352-146.183-146.183-146.183c-80.831 0-146.183 65.352-146.183 146.183s65.352 146.183 146.183 146.183zM523.19 558.176c-61.913 0-111.787-49.875-111.787-111.787s49.874-111.787 111.787-111.787c61.913 0 111.787 49.874 111.787 111.787s-49.874 111.787-111.787 111.787z" />
<glyph unicode="&#xe936;" glyph-name="Voice" horiz-adv-x="1268" d="M205.768 681.725h-149.885c-16.335 0-29.553-13.232-29.553-29.553v-330.447c0-16.32 13.218-29.553 29.553-29.553h149.886l425.207-235.988c19.773-10.907 43.896 3.395 43.896 25.844v809.856c0 10.476-5.541 20.159-14.574 25.469-9.004 5.296-20.144 5.455-29.322 0.375l-425.209-236.003zM85.436 622.619h98.442v-271.342h-98.442v271.342zM615.768 132.23l-372.785 206.898v295.642l372.785 206.912v-709.452zM970.862 11.479l41.789-41.789c125.916 125.916 195.267 293.377 195.267 471.544s-69.351 345.628-195.267 471.544l-41.789-41.789c114.776-114.762 177.951-267.388 177.951-429.755s-63.175-314.993-177.951-429.755zM869.823 112.518l41.789-41.789c204.271 204.3 204.271 536.71 0 740.996l-41.789-41.789c181.212-181.241 181.212-476.162 0-657.417zM810.573 171.782c148.571 148.571 148.571 390.332 0 538.903l-41.789-41.789c125.541-125.541 125.541-329.784 0-455.325l41.789-41.789z" />
</font>
</defs>
</svg>
