<svg xmlns="http://www.w3.org/2000/svg" width="15.306" height="10.208" viewBox="0 0 15.306 10.208">
  <path id="Icon_ionic-ios-arrow-round-back" data-name="Icon ionic-ios-arrow-round-back" d="M13.427,11.447a.7.7,0,0,1,.005.978l-3.227,3.238H22.5a.691.691,0,0,1,0,1.382h-12.3l3.232,3.238a.7.7,0,0,1-.005.978.688.688,0,0,1-.973-.005L8.079,16.843h0a.776.776,0,0,1-.144-.218.66.66,0,0,1-.053-.266.693.693,0,0,1,.2-.484l4.381-4.413A.677.677,0,0,1,13.427,11.447Z" transform="translate(-7.882 -11.252)"/>
</svg>
