<svg xmlns="http://www.w3.org/2000/svg" width="54.5" height="22.9" viewBox="0 0 54.5 22.9">
  <g id="Group_175" data-name="Group 175" transform="translate(-784.5 785.5)">
    <path id="Path_233" data-name="Path 233" d="M-307.923,1294.59s-4.872.7-13.6-8.388c-5.055-6.285-17.992-9.974-28.922,0s-10.794,7.788-10.794,7.788v7.651h53.319Z" transform="translate(1146.239 -2065.028)" fill="#fff"/>
    <path id="Subtraction_17" data-name="Subtraction 17" d="M54.316,15H1V13.989c.01.053.054.175.279.175.657,0,2.9-1.038,10.515-7.991A22.048,22.048,0,0,1,26.717,0,19.685,19.685,0,0,1,34.9,1.779a16.066,16.066,0,0,1,5.814,4.395,34.558,34.558,0,0,0,9.091,7.153,10,10,0,0,0,4.251,1.247,2.076,2.076,0,0,0,.257-.012V15Z" transform="translate(784 -785)" fill="none" stroke="#dee2e6" stroke-width="1"/>
    <rect id="Rectangle_49" data-name="Rectangle 49" width="54" height="8" transform="translate(785 -770.6)" fill="#fff"/>
  </g>
</svg>
