<?xml version="1.0" encoding="UTF-8"?>
<svg width="53px" height="53px" viewBox="0 0 53 53" version="1.1" xmlns="http://www.w3.org/2000/svg" xmlns:xlink="http://www.w3.org/1999/xlink">
    <title>Group 28</title>
    <defs>
        <path d="M34,17.89801 L22,17.89801 C20.9,17.89801 20,18.79801 20,19.89801 L20,31.89801 C20,32.99801 20.9,33.89801 22,33.89801 L34,33.89801 C35.1,33.89801 36,32.99801 36,31.89801 L36,19.89801 C36,18.79801 35.1,17.89801 34,17.89801 Z M23,20.89801 L27,20.89801 L27,26.89801 L23,26.89801 L23,20.89801 Z M33,30.89801 L23,30.89801 L23,28.89801 L33,28.89801 L33,30.89801 Z M33,26.89801 L29,26.89801 L29,24.89801 L33,24.89801 L33,26.89801 Z M33,22.89801 L29,22.89801 L29,20.89801 L33,20.89801 L33,22.89801 Z M18,21.89801 L16,21.89801 L16,35.89801 C16,36.99801 16.9,37.89801 18,37.89801 L32,37.89801 L32,35.89801 L18,35.89801 L18,21.89801 Z" id="path-1"></path>
    </defs>
    <g id="Page-1" stroke="none" stroke-width="1" fill="none" fill-rule="evenodd">
        <g id="Group-28" transform="translate(0.875000, 0.500000)">
            <rect id="Rectangle-Copy-4" fill="#FFF4DE" x="0" y="0" width="52" height="52" rx="8"></rect>
            <mask id="mask-2" fill="white">
                <use xlink:href="#path-1"></use>
            </mask>
            <g id="Shape-Copy" fill-rule="nonzero"></g>
            <g id="Group-3" transform="translate(9.000000, 10.000000)">
                <path d="M3.412,6.44444444 L3.41227214,28.7824708 L25.786,28.7824444 L25.7860243,32 L3.55555556,32 C1.59187645,32 2.90501659e-15,30.4081236 0,28.4444444 L0,6.44444444 L3.412,6.44444444 Z" id="Combined-Shape" fill="#FFDEAD"></path>
                <path d="M29.7777778,2.52637417e-14 C31.2505371,2.49932002e-14 32.4444444,1.19390733 32.4444444,2.66666667 L32.4444444,22.8615181 C32.4444444,24.3342775 31.2505371,25.5281848 29.7777778,25.5281848 L9.62962963,25.5281848 C8.1568703,25.5281848 6.96296296,24.3342775 6.96296296,22.8615181 L6.96296296,2.66666667 C6.96296296,1.19390733 8.1568703,2.46461048e-14 9.62962963,2.52637417e-14 L29.7777778,2.52637417e-14 Z M27.5904586,17.4991093 L11.7037037,17.4991093 L11.7037037,20.6738146 L27.5904586,20.6738146 L27.5904586,17.4991093 Z M18.0740741,4.76409241 L11.7037037,4.76409241 L11.7037037,14.319648 L18.0740741,14.319648 L18.0740741,4.76409241 Z M27.5904586,11.1449426 L21.2200883,11.1449426 L21.2200883,14.319648 L27.5904586,14.319648 L27.5904586,11.1449426 Z M27.5904586,4.76409241 L21.2200883,4.76409241 L21.2200883,7.93879776 L27.5904586,7.93879776 L27.5904586,4.76409241 Z" id="Combined-Shape" fill="#FFA800"></path>
            </g>
        </g>
    </g>
</svg>