<svg xmlns="http://www.w3.org/2000/svg" id="prefix__event-24px_2_" width="18" height="18" data-name="event-24px (2)" viewBox="0 0 18 18">
    <path id="prefix__Path_8061" fill="none" d="M0 0h18v18H0z" data-name="Path 8061"/>
    <path id="prefix__Forma_1" fill="#4b316c" d="M2.5 16A2.5 2.5 0 0 1 0 13.5V3.75a2.5 2.5 0 0 1 2.5-2.5h.781V.625a.625.625 0 1 1 1.25 0v.625h2.813V.625a.625.625 0 0 1 1.25 0v.625h2.844V.625a.625.625 0 0 1 1.25 0v.625h.812a2.5 2.5 0 0 1 2.5 2.5v6.625a.625.625 0 0 1-1.25 0V3.75A1.251 1.251 0 0 0 13.5 2.5h-.813v.625a.625.625 0 0 1-1.25 0V2.5H8.594v.625a.625.625 0 0 1-1.25 0V2.5H4.531v.625a.625.625 0 1 1-1.25 0V2.5H2.5a1.251 1.251 0 0 0-1.25 1.25v9.75a1.251 1.251 0 0 0 1.25 1.25h11a1.251 1.251 0 0 0 1.25-1.25.625.625 0 0 1 1.25 0 2.5 2.5 0 0 1-2.5 2.5zm6.219-4a.625.625 0 1 1 .625.625.625.625 0 0 1-.625-.625zM6 12a.625.625 0 1 1 .625.625A.625.625 0 0 1 6 12zm-2.719 0a.625.625 0 1 1 .625.625.625.625 0 0 1-.625-.625zm8.156-2.719a.625.625 0 1 1 .625.625.625.625 0 0 1-.624-.625zm-2.719 0a.625.625 0 1 1 .625.625.625.625 0 0 1-.624-.625zM6 9.281a.625.625 0 1 1 .625.625A.625.625 0 0 1 6 9.281zm-2.719 0a.625.625 0 1 1 .625.625.625.625 0 0 1-.625-.625zm8.156-2.719a.625.625 0 1 1 .625.625.625.625 0 0 1-.624-.625zm-2.719 0a.625.625 0 1 1 .625.625.625.625 0 0 1-.624-.625zM6 6.562a.625.625 0 1 1 .625.625A.625.625 0 0 1 6 6.562zm-2.719 0a.625.625 0 1 1 .625.625.625.625 0 0 1-.625-.625z" data-name="Forma 1" transform="translate(1.376 2)"/>
</svg>
