<?xml version="1.0" encoding="UTF-8"?>
<svg width="68px" height="68px" viewBox="0 0 68 68" version="1.1" xmlns="http://www.w3.org/2000/svg" xmlns:xlink="http://www.w3.org/1999/xlink">
    <title>success</title>
    <g id="success" stroke="none" stroke-width="1" fill="none" fill-rule="evenodd">
        <path d="M12.2149714,21.3574857 C12.2149714,16.6233143 16.0542857,12.7853714 20.7870857,12.7853714 C16.0542857,12.7853714 12.2163429,8.94742857 12.2163429,4.21394286 C12.2163429,8.94742857 8.37771429,12.7853714 3.64354286,12.7853714 C8.37771429,12.7853714 12.2149714,16.6233143 12.2149714,21.3574857 Z" id="Path" stroke="#48A651" fill="#67AD5C" stroke-linecap="round" stroke-linejoin="round"></path>
        <path d="M58.1435429,54.0003429 C58.1435429,50.2138286 61.2148571,47.1425143 65,47.1425143 C61.2148571,47.1438857 58.1435429,44.0739429 58.1435429,40.2860571 C58.1435429,44.0739429 55.0742857,47.1438857 51.2877714,47.1438857 C55.0742857,47.1438857 58.1435429,50.2138286 58.1435429,54.0003429 Z" id="Path" stroke="#48A651" fill="#67AD5C" stroke-linecap="round" stroke-linejoin="round"></path>
        <circle id="Oval" stroke="#48A651" fill="#67AD5C" stroke-linecap="round" stroke-linejoin="round" cx="44.5006857" cy="6.78605714" r="2.57211429"></circle>
        <path d="M34.2877714,14.0003429 C23.2420764,14.0003429 14.2877714,22.9546479 14.2877714,34.0003429 C14.2877714,45.0460379 23.2420764,54.0003429 34.2877714,54.0003429 C45.3334664,54.0003429 54.2877714,45.0460379 54.2877714,34.0003429 C54.2743417,22.9602154 45.3278989,14.0137726 34.2877714,14.0003429 Z M44.5677714,28.3203429 L31.2477714,41.6270095 C31.0572718,41.8297927 30.8032745,41.961495 30.5277714,42.0003429 C30.4442537,42.0165188 30.3594934,42.025441 30.2744381,42.0270095 C30.2022924,42.031307 30.1299727,42.0222671 30.0611048,42.0003429 C29.7856116,41.961464 29.531624,41.8297668 29.3411048,41.6270095 L24.0077714,36.3070095 C23.7581012,36.0579008 23.6177906,35.7196997 23.6177906,35.3670095 C23.6177906,35.0143193 23.7581012,34.6761182 24.0077714,34.4270095 C24.531782,33.907039 25.3770942,33.907039 25.9011048,34.4270095 L30.3011048,38.8270095 L42.6744381,26.4403429 C43.1984726,25.9204305 44.0437369,25.9204305 44.5677714,26.4403429 C44.8174089,26.689469 44.9576968,27.0276636 44.9576968,27.3803429 C44.9576968,27.7330222 44.8174089,28.0712167 44.5677714,28.3203429 L44.5677714,28.3203429 Z" id="Shape" fill="#67AD5C" fill-rule="nonzero"></path>
        <circle id="Oval" stroke="#48A651" fill="#67AD5C" stroke-linecap="round" stroke-linejoin="round" cx="15.6438857" cy="60.5710857" r="3.42857143"></circle>
    </g>
</svg>